<svg width="800" height="450" viewBox="0 0 800 450" fill="none" xmlns="http://www.w3.org/2000/svg">
  <defs>
    <linearGradient id="frameStroke" x1="0" y1="0" x2="800" y2="450" gradientUnits="userSpaceOnUse">
      <stop offset="0" stop-color="#35D1FF"/>
      <stop offset="0.5" stop-color="#5BA7FF"/>
      <stop offset="1" stop-color="#2BE4C6"/>
    </linearGradient>
    <linearGradient id="cornerGlow" x1="0" y1="0" x2="1" y2="1">
      <stop offset="0" stop-color="#9DEBFF" stop-opacity="0.9"/>
      <stop offset="1" stop-color="#4C9BFF" stop-opacity="0.35"/>
    </linearGradient>
    <filter id="frameGlow" x="-20" y="-20" width="840" height="490" filterUnits="userSpaceOnUse" color-interpolation-filters="sRGB">
      <feGaussianBlur in="SourceGraphic" stdDeviation="3" result="blur"/>
      <feColorMatrix in="blur" type="matrix" values="0 0 0 0 0.2  0 0 0 0 0.7  0 0 0 0 1  0 0 0 0.45 0"/>
      <feBlend in="SourceGraphic" in2="blur" mode="screen"/>
    </filter>
  </defs>

  <g id="video_frame" stroke-linecap="round" stroke-linejoin="round">
    <rect x="6" y="6" width="788" height="438" rx="18" stroke="url(#frameStroke)" stroke-width="3" filter="url(#frameGlow)"/>
    <rect x="22" y="22" width="756" height="406" rx="12" stroke="#4BC7FF" stroke-opacity="0.4" stroke-width="1.5"/>
    <rect x="30" y="30" width="740" height="390" rx="10" stroke="#2C6FB6" stroke-opacity="0.35" stroke-width="1" stroke-dasharray="6 6"/>

    <path d="M34 86 V34 H86" stroke="url(#cornerGlow)" stroke-width="3"/>
    <path d="M714 34 H766 V86" stroke="url(#cornerGlow)" stroke-width="3"/>
    <path d="M34 364 V416 H86" stroke="url(#cornerGlow)" stroke-width="3"/>
    <path d="M766 364 V416 H714" stroke="url(#cornerGlow)" stroke-width="3"/>

    <path d="M130 22 V10" stroke="#7DDCFF" stroke-opacity="0.6" stroke-width="2"/>
    <path d="M670 22 V10" stroke="#7DDCFF" stroke-opacity="0.6" stroke-width="2"/>
    <path d="M130 440 V428" stroke="#7DDCFF" stroke-opacity="0.5" stroke-width="2"/>
    <path d="M670 440 V428" stroke="#7DDCFF" stroke-opacity="0.5" stroke-width="2"/>

    <rect x="52" y="14" width="44" height="6" rx="3" fill="#7FE7FF" fill-opacity="0.7"/>
    <rect x="704" y="14" width="44" height="6" rx="3" fill="#7FE7FF" fill-opacity="0.7"/>
    <rect x="52" y="430" width="44" height="6" rx="3" fill="#7FE7FF" fill-opacity="0.35"/>
    <rect x="704" y="430" width="44" height="6" rx="3" fill="#7FE7FF" fill-opacity="0.35"/>
  </g>
</svg>