<svg width="800" height="640" viewBox="0 0 800 640" fill="none" xmlns="http://www.w3.org/2000/svg">
  <defs>
    <filter id="shadow" x="-5%" y="-5%" width="110%" height="110%">
      <feDropShadow dx="0" dy="4" stdDeviation="6" flood-color="#000000" flood-opacity="0.08"/>
    </filter>
    <linearGradient id="headerGrad" x1="0%" y1="0%" x2="100%" y2="0%">
      <stop offset="0%" stop-color="#FFFFFF"/>
      <stop offset="100%" stop-color="#F9FBFF"/>
    </linearGradient>
  </defs>

  <rect width="800" height="640" fill="#F4F7FB"/>

  <g filter="url(#shadow)">
    <rect x="20" y="20" width="760" height="90" rx="16" fill="url(#headerGrad)" stroke="#E1E8F0" stroke-width="1"/>
    <path d="M20 36C20 27.1634 27.1634 20 36 20H764C772.837 20 780 27.1634 780 36V40H20V36Z" fill="#4A90E2" fill-opacity="0.1"/>
    
    <text x="50" y="55" font-family="Segoe UI, Roboto, Arial" font-size="13" font-weight="600" fill="#6C7A8B">系统设备总计</text>
    <text x="50" y="85" font-family="Arial Black" font-size="28" fill="#2F3E4E">1,284</text>
    
    <line x1="250" y1="40" x2="250" y2="85" stroke="#E1E8F0" stroke-width="1"/>
    
    <text x="280" y="55" font-family="Segoe UI, Roboto, Arial" font-size="13" font-weight="600" fill="#6C7A8B">当前在线</text>
    <text x="280" y="85" font-family="Arial Black" font-size="28" fill="#4A90E2">1,256</text>
    
    <line x1="510" y1="40" x2="510" y2="85" stroke="#E1E8F0" stroke-width="1"/>
    
    <text x="540" y="55" font-family="Segoe UI, Roboto, Arial" font-size="13" font-weight="600" fill="#6C7A8B">网络连通率</text>
    <text x="540" y="85" font-family="Arial Black" font-size="28" fill="#50B081">97.8%</text>
  </g>

  <g filter="url(#shadow)">
    <rect x="20" y="130" width="240" height="130" rx="12" fill="#FFFFFF" stroke="#D6E4FF" stroke-width="1.5"/>
    <rect x="20" y="130" width="6" height="130" rx="12" fill="#4A90E2" /> <text x="40" y="160" font-family="Segoe UI, Arial" font-size="16" font-weight="bold" fill="#2F3E4E">监控区域 (CCTV)</text>
    <text x="40" y="190" font-family="Segoe UI, Arial" font-size="14" fill="#6C7A8B">设备数: 48</text>
    <rect x="40" y="210" width="80" height="24" rx="6" fill="#EBF5FF"/>
    <text x="48" y="227" font-family="Arial" font-size="12" fill="#4A90E2" font-weight="600">在线 46</text>
    <rect x="130" y="210" width="80" height="24" rx="6" fill="#FFF2F0"/>
    <text x="138" y="227" font-family="Arial" font-size="12" fill="#FF4D4F" font-weight="600">离线 2</text>
  </g>

  <g filter="url(#shadow)">
    <rect x="280" y="130" width="240" height="130" rx="12" fill="#FFFFFF" stroke="#D9F7BE" stroke-width="1.5"/>
    <rect x="280" y="130" width="6" height="130" rx="12" fill="#52C41A" />
    <text x="300" y="160" font-family="Segoe UI, Arial" font-size="16" font-weight="bold" fill="#2F3E4E">B2F 供电/HVAC</text>
    <text x="300" y="190" font-family="Segoe UI, Arial" font-size="14" fill="#6C7A8B">设备数: 156</text>
    <rect x="300" y="210" width="80" height="24" rx="6" fill="#F6FFED"/>
    <text x="308" y="227" font-family="Arial" font-size="12" fill="#52C41A" font-weight="600">在线 154</text>
  </g>

  <g filter="url(#shadow)">
    <rect x="540" y="130" width="240" height="130" rx="12" fill="#FFFFFF" stroke="#EFDBFF" stroke-width="1.5"/>
    <rect x="540" y="130" width="6" height="130" rx="12" fill="#722ED1" />
    <text x="560" y="160" font-family="Segoe UI, Arial" font-size="16" font-weight="bold" fill="#2F3E4E">BMF 门禁系统</text>
    <text x="560" y="190" font-family="Segoe UI, Arial" font-size="14" fill="#6C7A8B">设备数: 92</text>
    <rect x="560" y="210" width="160" height="24" rx="6" fill="#F9F0FF"/>
    <text x="568" y="227" font-family="Arial" font-size="12" fill="#722ED1" font-weight="600">所有设备运行正常</text>
  </g>

  <g filter="url(#shadow)">
    <rect x="20" y="280" width="370" height="340" rx="16" fill="#FFFFFF" stroke="#E1E8F0" stroke-width="1"/>
    <rect x="20" y="280" width="370" height="50" rx="16" fill="#F8FAFC"/>
    <text x="40" y="312" font-family="Segoe UI, Arial" font-size="16" font-weight="bold" fill="#2F3E4E">实时列表</text>
    
    <g transform="translate(40, 350)">
      <rect width="330" height="45" rx="8" fill="#FFFFFF" stroke="#F0F4F9" stroke-width="1"/>
      <text x="12" y="28" font-family="Consolas, monospace" font-size="13" fill="#2F3E4E">CCTV_CAM_A01</text>
      <circle cx="280" cy="24" r="4" fill="#52C41A"/>
      <text x="290" y="28" font-family="Arial" font-size="12" fill="#6C7A8B">ONLINE</text>

      <rect y="55" width="330" height="45" rx="8" fill="#FFFFFF" stroke="#F0F4F9" stroke-width="1"/>
      <text x="12" y="83" font-family="Consolas, monospace" font-size="13" fill="#2F3E4E">HVAC_VALVE_04</text>
      <circle cx="280" cy="79" r="4" fill="#FF4D4F"/>
      <text x="290" y="83" font-family="Arial" font-size="12" fill="#6C7A8B">OFFLINE</text>
      
      <rect y="110" width="330" height="45" rx="8" fill="#FFFFFF" stroke="#F0F4F9" stroke-width="1"/>
      <text x="12" y="138" font-family="Consolas, monospace" font-size="13" fill="#2F3E4E">DOOR_CTRL_B12</text>
      <circle cx="280" cy="134" r="4" fill="#52C41A"/>
      <text x="290" y="138" font-family="Arial" font-size="12" fill="#6C7A8B">ONLINE</text>
    </g>
  </g>

  <g filter="url(#shadow)">
    <rect x="410" y="280" width="370" height="340" rx="16" fill="#FFFFFF" stroke="#E1E8F0" stroke-width="1"/>
    <rect x="410" y="280" width="370" height="50" rx="16" fill="#FFF1F0"/>
    <text x="430" y="312" font-family="Segoe UI, Arial" font-size="16" font-weight="bold" fill="#CF1322">告警日志 (今日 4)</text>

    <g transform="translate(430, 350)">
      <rect width="330" height="50" rx="8" fill="#FFF7F6"/>
      <text x="15" y="22" font-family="Segoe UI, Arial" font-size="13" font-weight="bold" fill="#CF1322">! 温度过高告警</text>
      <text x="15" y="42" font-family="Segoe UI, Arial" font-size="12" fill="#A8071A">12:05 - B2F 机房 04 号空调传感器</text>

      <rect y="60" width="330" height="50" rx="8" fill="#FFFBE6"/>
      <text x="15" y="82" font-family="Segoe UI, Arial" font-size="13" font-weight="bold" fill="#D48806">i 门禁重连通知</text>
      <text x="15" y="102" font-family="Segoe UI, Arial" font-size="12" fill="#874D00">11:42 - BMF 东侧通道 02 控制器</text>
    </g>
  </g>
</svg>