<svg width="100%" height="100%" viewBox="0 0 1700 900" xmlns="http://www.w3.org/2000/svg" style="background-color: #FFFFFF; font-family: 'Microsoft YaHei', sans-serif;">
  <defs>
    <linearGradient id="glowGradient" x1="0%" y1="0%" x2="100%" y2="100%">
      <stop offset="0%" style="stop-color:#3B82F6;stop-opacity:1" />
      <stop offset="50%" style="stop-color:#10B981;stop-opacity:1" />
      <stop offset="100%" style="stop-color:#EF4444;stop-opacity:1" />
    </linearGradient>

    <filter id="neonGlow">
      <feGaussianBlur in="SourceGraphic" stdDeviation="5" result="blur5"/>
      <feFlood flood-color="#3B82F6" flood-opacity="0.8" result="floodColor"/>
      <feComposite in="floodColor" in2="blur5" operator="in" result="glow"/>
      <feMerge>
        <feMergeNode in="glow"/>
        <feMergeNode in="SourceGraphic"/>
      </feMerge>
    </filter>
    
    <symbol id="music-icon" viewBox="0 0 24 24">
      <path d="M12 3v10.55c-1.4.15-2.5 1.41-2.5 2.95s1.1 2.8 2.5 2.95v-13.45h3V3h-3z" fill="currentColor"/>
    </symbol>

    <g id="online-card-compact">
      <rect x="0" y="0" width="160" height="70" rx="8" ry="8" fill="#F9FAFB" stroke="#10B981" stroke-width="2"/>
      <use href="#music-icon" x="10" y="15" width="40" height="40" fill="#10B981"/>
      <circle cx="145" cy="15" r="5" fill="#10B981"/> <text x="55" y="30" font-size="14" fill="#1F2937" text-anchor="start">设备名称</text>
      <text x="55" y="50" font-size="10" fill="#6B7280" text-anchor="start">IP地址</text>
    </g>

    <g id="offline-card-compact">
      <rect x="0" y="0" width="160" height="70" rx="8" ry="8" fill="#F9FAFB" stroke="#EF4444" stroke-width="2"/>
      <use href="#music-icon" x="10" y="15" width="40" height="40" fill="#EF4444"/>
      <circle cx="145" cy="15" r="5" fill="#EF4444"/>
      <text x="55" y="30" font-size="14" fill="#1F2937" text-anchor="start">设备名称</text>
      <text x="55" y="50" font-size="10" fill="#6B7280" text-anchor="start">IP地址</text>
    </g>
  </defs>

  <rect x="50" y="30" width="1600" height="70" rx="10" ry="10" fill="#F9FAFB" stroke="#3B82F6" stroke-width="1.5"/>
  <text x="850" y="72" font-size="32" fill="#1F2937" text-anchor="middle" font-weight="bold">
    SystemIntegrationGem - 背景音乐系统集成平台
  </text>
  
  <g transform="translate(1350, 50)" font-size="18" fill="#1F2937">
    <text x="0" y="0" font-weight="bold">状态:</text>
    <rect x="70" y="-12" width="18" height="18" rx="3" ry="3" fill="#10B981"/>
    <text x="95" y="0">在线</text>
    <rect x="170" y="-12" width="18" height="18" rx="3" ry="3" fill="#EF4444"/>
    <text x="195" y="0">离线</text>
  </g>

  <rect x="50" y="120" width="1600" height="750" rx="15" ry="15" fill="#FFFFFF"/>
  <rect x="50" y="120" width="1600" height="750" rx="15" ry="15" 
        fill="none" stroke="url(#glowGradient)" stroke-width="3" filter="url(#neonGlow)"/>

  <g id="device-layout" transform="translate(70, 150)">
    
    <text x="0" y="0" font-size="20" fill="#3B82F6" font-weight="bold">厂房 - 公共广播</text>
    <line x1="-20" y1="10" x2="1550" y2="10" stroke="#E5E7EB" stroke-width="1"/>
    <g transform="translate(0, 30)">
      <use href="#online-card-compact" transform="translate(0, 0)">
        <text x="55" y="30">厂房-01</text><text x="55" y="50">192.168.100.1</text>
      </use>
      <use href="#online-card-compact" transform="translate(180, 0)">
        <text x="55" y="30">厂房-02</text><text x="55" y="50">192.168.100.2</text>
      </use>
      <use href="#online-card-compact" transform="translate(360, 0)">
        <text x="55" y="30">厂房-03</text><text x="55" y="50">192.168.100.3</text>
      </use>
      <use href="#online-card-compact" transform="translate(540, 0)">
        <text x="55" y="30">厂房-04</text><text x="55" y="50">192.168.100.4</text>
      </use>
      <use href="#online-card-compact" transform="translate(720, 0)">
        <text x="55" y="30">厂房-05</text><text x="55" y="50">192.168.100.5</text>
      </use>
      <use href="#offline-card-compact" transform="translate(900, 0)">
        <text x="55" y="30">厂房-06</text><text x="55" y="50">192.168.100.6</text>
      </use>
      <use href="#online-card-compact" transform="translate(1080, 0)">
        <text x="55" y="30">厂房-07</text><text x="55" y="50">192.168.100.7</text>
      </use>
      <use href="#online-card-compact" transform="translate(1260, 0)">
        <text x="55" y="30">厂房-08</text><text x="55" y="50">192.168.100.8</text>
      </use>
    </g>

    <text x="0" y="150" font-size="20" fill="#3B82F6" font-weight="bold">研发楼 - 背景音乐</text>
    <line x1="-20" y1="160" x2="1550" y2="160" stroke="#E5E7EB" stroke-width="1"/>
    <g transform="translate(0, 180)">
      <use href="#offline-card-compact" transform="translate(0, 0)">
        <text x="55" y="30">研发楼-01</text><text x="55" y="50">192.168.100.9</text>
      </use>
      <use href="#online-card-compact" transform="translate(180, 0)">
        <text x="55" y="30">研发楼-02</text><text x="55" y="50">192.168.100.10</text>
      </use>
      <use href="#online-card-compact" transform="translate(360, 0)">
        <text x="55" y="30">研发楼-03</text><text x="55" y="50">192.168.100.11</text>
      </use>
      <use href="#online-card-compact" transform="translate(540, 0)">
        <text x="55" y="30">研发楼-04</text><text x="55" y="50">192.168.100.12</text>
      </use>
      <use href="#online-card-compact" transform="translate(720, 0)">
        <text x="55" y="30">研发楼-05</text><text x="55" y="50">192.168.100.13</text>
      </use>
      <use href="#online-card-compact" transform="translate(900, 0)">
        <text x="55" y="30">研发楼-06</text><text x="55" y="50">192.168.100.14</text>
      </use>
    </g>

    <text x="0" y="300" font-size="20" fill="#3B82F6" font-weight="bold">宿舍楼 - 背景音乐</text>
    <line x1="-20" y1="310" x2="1550" y2="310" stroke="#E5E7EB" stroke-width="1"/>
    <g transform="translate(0, 330)">
      <use href="#online-card-compact" transform="translate(0, 0)">
        <text x="55" y="30">宿舍楼-01</text><text x="55" y="50">192.168.100.15</text>
      </use>
      <use href="#offline-card-compact" transform="translate(180, 0)">
        <text x="55" y="30">宿舍楼-02</text><text x="55" y="50">192.168.100.16</text>
      </use>
      <use href="#online-card-compact" transform="translate(360, 0)">
        <text x="55" y="30">宿舍楼-03</text><text x="55" y="50">192.168.100.17</text>
      </use>
      <use href="#online-card-compact" transform="translate(540, 0)">
        <text x="55" y="30">宿舍楼-04</text><text x="55" y="50">192.168.100.18</text>
      </use>
      <use href="#offline-card-compact" transform="translate(720, 0)">
        <text x="55" y="30">宿舍楼-05</text><text x="55" y="50">192.168.100.19</text>
      </use>
      <use href="#online-card-compact" transform="translate(900, 0)">
        <text x="55" y="30">宿舍楼-06</text><text x="55" y="50">192.168.100.20</text>
      </use>
      <use href="#online-card-compact" transform="translate(1080, 0)">
        <text x="55" y="30">宿舍楼-07</text><text x="55" y="50">192.168.100.21</text>
      </use>
      <use href="#online-card-compact" transform="translate(1260, 0)">
        <text x="55" y="30">宿舍楼-08</text><text x="55" y="50">192.168.100.22</text>
      </use>
    </g>
    
    <text x="0" y="450" font-size="20" fill="#3B82F6" font-weight="bold">综合楼 - 背景音乐</text>
    <line x1="-20" y1="460" x2="1550" y2="460" stroke="#E5E7EB" stroke-width="1"/>
    <g transform="translate(0, 480)">
      <use href="#online-card-compact" transform="translate(0, 0)">
        <text x="55" y="30">综合楼-01</text><text x="55" y="50">192.168.100.23</text>
      </use>
      <use href="#online-card-compact" transform="translate(180, 0)">
        <text x="55" y="30">综合楼-02</text><text x="55" y="50">192.168.100.24</text>
      </use>
    </g>

    <g transform="translate(0, 600)">
        <rect x="0" y="0" width="1560" height="100" rx="8" fill="#F9FAFB" stroke="#E5E7EB" stroke-width="1"/>
        <text x="20" y="30" font-size="18" fill="#1F2937" font-weight="bold">系统概况:</text>
        <text x="200" y="30" font-size="16" fill="#10B981">总设备: 24 台 (在线: 20)</text>
        <text x="450" y="30" font-size="16" fill="#EF4444">离线设备: 4 台</text>
        <text x="20" y="70" font-size="16" fill="#6B7280">集成平台版本: V8.0.1 | 更新时间: 2025-12-04 22:15 PST</text>
    </g>
  </g>
</svg>