<svg width="1200" height="800" viewBox="0 0 1200 800" xmlns="http://www.w3.org/2000/svg"> <defs> <marker id="arrow" markerWidth="10" markerHeight="10" refX="9" refY="3" orient="auto" markerUnits="strokeWidth"> <path d="M0,0 L0,6 L9,3 z" fill="#3182ce" /> </marker> <style> text { font-family: sans-serif; fill: #2d3748; } .title-text { font-size: 16px; font-weight: bold; fill: #1a365d; } .sub-text { font-size: 12px; fill: #4a5568; } .label-text { font-size: 11px; } .module-box { fill: #f7fafc; stroke: #cbd5e0; stroke-width: 1.5; } .module-header { fill: #ebf4ff; stroke: #cbd5e0; stroke-width: 1.5; } .flow-arrow { stroke: #3182ce; stroke-width: 4; fill: none; marker-end: url(#arrow); } .icon-stroke { stroke: #4a5568; stroke-width: 1.5; fill: none; } .icon-fill { fill: #e2e8f0; stroke: #4a5568; stroke-width: 1.5; } .status-ok { fill: #48bb78; } .status-fault { fill: #f56565; } .power-box { fill: #edf2f7; stroke: #a0aec0; stroke-width: 1; stroke-dasharray: 4,2; } </style> </defs>

<rect x="0" y="0" width="1200" height="800" fill="#ffffff" />

<g transform="translate(50, 50)"> <rect class="module-box" width="350" height="200" rx="5" ry="5" /> <rect class="module-header" width="350" height="30" rx="5" ry="5" /> <text x="10" y="20" class="title-text">医用气体系统</text> <text x="250" y="20" class="sub-text">(API/OPC)</text>

<g transform="translate(20, 50)">
  <g>
    <rect class="icon-fill" x="0" y="0" width="20" height="40" rx="2" />
    <text x="10" y="55" text-anchor="middle" class="label-text">LOX</text>
    <circle cx="5" cy="10" r="3" fill="#bee3f8" /><text x="5" y="12" font-size="8" text-anchor="middle">L</text>
    <circle cx="15" cy="10" r="3" fill="#bee3f8" /><text x="15" y="12" font-size="8" text-anchor="middle">P</text>
  </g>
  <g transform="translate(35,0)">
    <rect class="icon-fill" x="0" y="0" width="20" height="40" rx="2" />
    <text x="10" y="55" text-anchor="middle" class="label-text">N2</text>
    <circle cx="15" cy="10" r="3" fill="#bee3f8" /><text x="15" y="12" font-size="8" text-anchor="middle">P</text>
  </g>
   <g transform="translate(70,0)">
    <rect class="icon-fill" x="0" y="0" width="20" height="40" rx="2" />
    <text x="10" y="55" text-anchor="middle" class="label-text">N2O</text>
    <circle cx="15" cy="10" r="3" fill="#bee3f8" /><text x="15" y="12" font-size="8" text-anchor="middle">P</text>
  </g>
  <g transform="translate(105,0)">
    <rect class="icon-fill" x="0" y="0" width="20" height="40" rx="2" />
    <text x="10" y="55" text-anchor="middle" class="label-text">CO2</text>
    <circle cx="15" cy="10" r="3" fill="#bee3f8" /><text x="15" y="12" font-size="8" text-anchor="middle">P</text>
  </g>

  <line x1="0" y1="80" x2="310" y2="80" class="icon-stroke" />
  <g transform="translate(160, 70)">
    <circle class="icon-fill" cx="10" cy="10" r="10" />
    <line x1="10" y1="10" x2="17" y2="3" class="icon-stroke" />
    <text x="25" y="15" class="label-text">汇流排压力</text>
  </g>
   <g transform="translate(240, 70)">
    <circle class="icon-fill" cx="10" cy="10" r="10" />
    <line x1="10" y1="10" x2="17" y2="3" class="icon-stroke" />
    <text x="25" y="15" class="label-text">末端压力</text>
  </g>

  <g transform="translate(0, 110)">
    <rect class="icon-fill" x="0" y="0" width="80" height="25" rx="2" />
    <text x="40" y="17" text-anchor="middle" class="label-text">总用氧量计量</text>
  </g>
</g>
</g>

<g transform="translate(50, 280)"> <rect class="module-box" width="350" height="200" rx="5" ry="5" /> <rect class="module-header" width="350" height="30" rx="5" ry="5" /> <text x="10" y="20" class="title-text">负压吸引系统</text> <text x="250" y="20" class="sub-text">(API/OPC)</text>

 <g transform="translate(20, 50)">
  <g>
    <circle class="icon-fill" cx="20" cy="20" r="15" />
    <text x="20" y="25" text-anchor="middle" font-size="10">真空泵1</text>
    <circle cx="35" cy="10" r="5" class="status-ok" />
    <text x="45" y="13" class="label-text">运行</text>
  </g>
  <g transform="translate(0, 45)">
    <circle class="icon-fill" cx="20" cy="20" r="15" />
    <text x="20" y="25" text-anchor="middle" font-size="10">真空泵2</text>
    <circle cx="35" cy="30" r="5" class="status-fault" />
    <text x="45" y="33" class="label-text">故障</text>
  </g>

  <g transform="translate(120, 10)">
    <rect class="icon-fill" x="0" y="0" width="60" height="30" rx="5" />
    <text x="30" y="20" text-anchor="middle" class="label-text">负压罐</text>
    <circle class="icon-fill" cx="75" cy="15" r="10" />
    <text x="90" y="20" class="label-text">罐压力</text>
  </g>
  <g transform="translate(120, 55)">
    <line x1="0" y1="15" x2="60" y2="15" class="icon-stroke" stroke-dasharray="3,2"/>
    <circle class="icon-fill" cx="75" cy="15" r="10" />
    <text x="90" y="20" class="label-text">分气缸压力</text>
  </g>

  <g transform="translate(0, 100)">
    <rect class="power-box" x="0" y="0" width="310" height="35" rx="2" />
    <text x="10" y="22" class="label-text" fill="#718096">来自电力监控系统:</text>
    <text x="130" y="22" class="label-text">电流 | 电压 | 功率 | 电度</text>
  </g>
</g>
</g>

<g transform="translate(50, 510)"> <rect class="module-box" width="350" height="200" rx="5" ry="5" /> <rect class="module-header" width="350" height="30" rx="5" ry="5" /> <text x="10" y="20" class="title-text">医气正压系统</text> <text x="250" y="20" class="sub-text">(API/OPC)</text>

<g transform="translate(20, 50)">
  <g>
    <rect class="icon-fill" x="5" y="5" width="30" height="30" rx="2" />
    <text x="20" y="45" text-anchor="middle" class="label-text">空压机1</text>
    <circle cx="40" cy="10" r="5" class="status-ok" />
    <text x="50" y="13" class="label-text">运行</text>
  </g>
   <g transform="translate(0, 45)">
    <rect class="icon-fill" x="5" y="5" width="30" height="30" rx="2" />
    <text x="20" y="45" text-anchor="middle" class="label-text">空压机2</text>
    <circle cx="40" cy="30" r="5" class="status-ok" />
    <text x="50" y="33" class="label-text">停止</text>
  </g>

  <g transform="translate(120, 10)">
    <rect class="icon-fill" x="0" y="0" width="30" height="60" rx="5" />
    <text x="15" y="75" text-anchor="middle" class="label-text">储气罐</text>
    <circle class="icon-fill" cx="45" cy="30" r="10" />
    <text x="60" y="35" class="label-text">罐压力</text>
  </g>
   <g transform="translate(180, 55)">
    <line x1="0" y1="15" x2="40" y2="15" class="icon-stroke" />
    <circle class="icon-fill" cx="55" cy="15" r="10" />
    <text x="70" y="20" class="label-text">分气缸压力</text>
  </g>

  <g transform="translate(0, 100)">
    <rect class="power-box" x="0" y="0" width="310" height="35" rx="2" />
    <text x="10" y="22" class="label-text" fill="#718096">来自电力监控系统:</text>
    <text x="130" y="22" class="label-text">电流 | 电压 | 功率 | 电度</text>
  </g>
</g>
</g>

<g transform="translate(450, 250)"> <rect class="module-box" width="300" height="300" rx="10" ry="10" stroke="#2b6cb0" stroke-width="2" fill="#ebf8ff" /> <text x="150" y="50" text-anchor="middle" class="title-text" font-size="20">智能化集成平台</text> <text x="150" y="80" text-anchor="middle" class="title-text" font-size="18">(AIoT/IBMS)</text>

<line x1="50" y1="110" x2="250" y2="110" stroke="#bee3f8" stroke-width="2" />

<g transform="translate(150, 150)" text-anchor="middle">
  <text x="0" y="0" class="title-text" fill="#2c5282">数据汇聚</text>
  <text x="0" y="40" class="title-text" fill="#2c5282">状态监测</text>
  <text x="0" y="80" class="title-text" fill="#2c5282">报警展示</text>
  <text x="0" y="120" class="title-text" fill="#2c5282">可视化图形化呈现</text>
</g>
</g>

<g transform="translate(800, 50)"> <rect class="module-box" width="350" height="300" rx="5" ry="5" /> <rect class="module-header" width="350" height="30" rx="5" ry="5" /> <text x="10" y="20" class="title-text">净化空调系统</text> <text x="180" y="20" class="sub-text">(BACnet/API/OPC)</text>

<g transform="translate(20, 50)">
  <rect class="icon-fill" x="80" y="20" width="160" height="120" rx="2" />
  <text x="160" y="15" text-anchor="middle" class="label-text">医用净化空气处理机组 (AHU)</text>

  <g transform="translate(0, 40)">
    <circle class="icon-fill" cx="15" cy="15" r="10" />
    <text x="30" y="20" class="label-text">回风温度</text>
  </g>
  <g transform="translate(0, 80)">
    <circle class="icon-fill" cx="15" cy="15" r="10" />
    <text x="30" y="20" class="label-text">回风湿度</text>
  </g>

  <g transform="translate(90, 40)">
    <polyline points="0,10 10,0 20,10" class="icon-stroke" />
    <text x="25" y="10" class="label-text" font-size="9">中效</text>
    <polyline points="40,10 50,0 60,10" class="icon-stroke" />
    <text x="65" y="10" class="label-text" font-size="9">高效</text>

    <path d="M10,40 Q20,30 30,40 T50,40" class="icon-stroke" stroke="blue"/>
    <text x="60" y="40" class="label-text" font-size="9">表冷</text>
    
    <g transform="translate(10, 70)">
      <circle class="icon-fill" cx="10" cy="10" r="8" />
      <polygon points="10,10 18,6 18,14" fill="#4a5568" />
      <text x="25" y="15" class="label-text" font-size="9">阀门开度</text>
    </g>
  </g>

  <g transform="translate(0, 160)">
    <text x="0" y="10" class="label-text" font-weight="bold">状态与告警:</text>
    <g transform="translate(10, 30)">
      <circle cx="5" cy="5" r="4" class="status-ok" /><text x="15" y="9" class="label-text">运行状态</text>
      <circle cx="105" cy="5" r="4" class="status-ok" /><text x="115" y="9" class="label-text">灭菌状态</text>
    </g>
    <g transform="translate(10, 55)">
      <circle cx="5" cy="5" r="4" class="status-fault" /><text x="15" y="9" class="label-text">送风故障</text>
       <circle cx="105" cy="5" r="4" class="status-fault" /><text x="115" y="9" class="label-text">氟冷故障</text>
    </g>
     <g transform="translate(10, 80)">
      <circle cx="5" cy="5" r="4" class="status-fault" /><text x="15" y="9" class="label-text">过滤器告警</text>
      <circle cx="105" cy="5" r="4" class="status-fault" /><text x="115" y="9" class="label-text">压差告警</text>
    </g>
  </g>
</g>
</g>

<g transform="translate(800, 380)"> <rect class="module-box" width="350" height="200" rx="5" ry="5" /> <rect class="module-header" width="350" height="30" rx="5" ry="5" /> <text x="10" y="20" class="title-text">数字手术室系统</text> <text x="200" y="20" class="sub-text">(图形参数显示)</text>

<g transform="translate(20, 50)">
  <rect class="icon-fill" x="10" y="10" width="290" height="100" rx="5" fill="#edf2f7" />
  <text x="155" y="125" text-anchor="middle" class="label-text">手术室环境监控视图</text>

  <g transform="translate(40, 30)">
    <path d="M0,10 A15,15 0 0,1 30,10 L30,15 L0,15 Z" class="icon-fill" />
    <text x="15" y="30" text-anchor="middle" class="label-text" font-size="9">手术灯</text>
  </g>
  <g transform="translate(100, 30)">
     <rect class="icon-fill" x="0" y="0" width="25" height="25" />
    <circle cx="12.5" cy="8" r="3" fill="#bee3f8"/>
    <circle cx="12.5" cy="17" r="3" fill="#bee3f8"/>
    <text x="12.5" y="35" text-anchor="middle" class="label-text" font-size="9">气体终端</text>
  </g>
   <g transform="translate(160, 30)">
     <rect class="icon-fill" x="0" y="0" width="20" height="30" />
    <text x="10" y="40" text-anchor="middle" class="label-text" font-size="9">温湿度</text>
  </g>
  <g transform="translate(220, 30)">
     <circle class="icon-fill" cx="15" cy="15" r="12" />
    <path d="M15,15 L22,10" class="icon-stroke" marker-end="url(#arrow)"/>
    <text x="15" y="40" text-anchor="middle" class="label-text" font-size="9">微压差</text>
  </g>

  <g transform="translate(10, 140)">
    <rect class="icon-fill" x="0" y="0" width="290" height="25" rx="2" fill="#4299e1" stroke="none"/>
    <text x="145" y="17" text-anchor="middle" class="label-text" fill="white" font-weight="bold">状态显示屏: 手术中 | 环境达标</text>
  </g>
</g>
</g>

<path d="M400 150 L450 300" class="flow-arrow" /> <path d="M400 380 L450 400" class="flow-arrow" /> <path d="M400 610 L450 500" class="flow-arrow" />

<path d="M800 200 L750 300" class="flow-arrow" /> <path d="M800 480 L750 500" class="flow-arrow" />

</svg>