<?xml version="1.0" encoding="UTF-8"?>
<svg version="1.1" xmlns="http://www.w3.org/2000/svg" width="144" height="144">
<path d="M0 0 C47.52 0 95.04 0 144 0 C144 47.52 144 95.04 144 144 C96.48 144 48.96 144 0 144 C0 96.48 0 48.96 0 0 Z " fill="#F6A155" transform="translate(0,0)"/>
<path d="M40 70 L40 105 L55 105 L55 70 Z M47.5 70 A7.5 7.5 0 1 1 47.5 70 Z M40 70 C40 65 55 65 55 70 Z M75 35 L75 105 L90 105 L90 35 Z M82.5 35 A7.5 7.5 0 1 1 82.5 35 Z M75 50 L90 50 L90 55 L75 55 Z M55 85 L75 85 L75 90 L55 90 Z M40 105 L90 105 L90 110 L40 110 Z" fill="#FEFEFD" transform="translate(0,0)"/>
<path d="M0 0 C0.33 0 0.66 0 1 0 C1 3.96 1 7.92 1 12 C4.3 12 7.6 12 11 12 C10.42334609 16.7871428 8.35917004 20.25128824 5.9375 24.3125 C5.37192383 25.28026367 5.37192383 25.28026367 4.79492188 26.26757812 C3.86962507 27.84878152 2.93567319 29.4249146 2 31 C1.34 31 0.68 31 0 31 C-0.02712066 29.56260487 -0.04645067 28.12506137 -0.0625 26.6875 C-0.07410156 25.88699219 -0.08570312 25.08648437 -0.09765625 24.26171875 C0 22 0 22 1 19 C-2.63 19 -6.26 19 -10 19 C-8.62309544 14.25652774 -6.56160559 10.27474838 -3.9375 6.125 C-3.57333984 5.53203125 -3.20917969 4.9390625 -2.83398438 4.328125 C-1.9218371 2.86464287 -0.96486632 1.4292745 0 0 Z " fill="#F6A35A" transform="translate(72,51)"/>
<path d="M0 0 C6.93 0 13.86 0 21 0 C20 6 20 6 18 8.875 C14.4953489 11.3574612 12.45400046 11.85121742 8.2265625 11.625 C4.78739713 10.65962025 3.15899377 8.66506527 0.99609375 5.921875 C0 4 0 4 0 0 Z " fill="#FBD9B7" transform="translate(62,103)"/>
<path d="M0 0 C0.33 0 0.66 0 1 0 C1 3.96 1 7.92 1 12 C-2.96 12 -6.92 12 -11 12 C-9.68 11.01 -8.36 10.02 -7 9 C-3.98894452 6.20401991 -1.5626448 3.8355827 0 0 Z " fill="#000000" transform="translate(143,132)"/>
<path d="M0 0 C0.99 1.32 1.98 2.64 3 4 C5.88117056 7.0289229 8.63820806 9.47865604 12 12 C8.04 12 4.08 12 0 12 C0 8.04 0 4.08 0 0 Z " fill="#000000" transform="translate(0,132)"/>
<path d="M0 0 C3.96 0 7.92 0 12 0 C12 3.96 12 7.92 12 12 C11.01 10.68 10.02 9.36 9 8 C6.11882944 4.9710771 3.36179194 2.52134396 0 0 Z " fill="#000000" transform="translate(132,0)"/>
<path d="M0 0 C3.96 0 7.92 0 12 0 C10.68 0.99 9.36 1.98 8 3 C4.9710771 5.88117056 2.52134396 8.63820806 0 12 C0 8.04 0 4.08 0 0 Z " fill="#000000" transform="translate(0,0)"/>
</svg>