<?xml version="1.0" encoding="UTF-8"?>
<svg version="1.1" xmlns="http://www.w3.org/2000/svg" width="144" height="144" viewBox="0 0 144 144">
  <!-- 背景圆角方块 -->
  <path d="M0 0 C47.52 0 95.04 0 144 0 C144 47.52 144 95.04 144 144 C96.48 144 48.96 144 0 144 C0 96.48 0 48.96 0 0 Z" fill="#F6A155"/>

  <!-- 医疗十字主体（白色）-->
  <path d="M0 0 C2.64 0 5.28 0 8 0 C8 8.58 8 17.16 8 26 C16.74 26 25.48 26 35 26 C35 34.74 35 43.48 35 53 C25.28 53 15.56 53 6 53 C6 61.74 6 70.48 6 80 C5.28 80 4.56 80 4 80 C4 70.4 4 60.8 4 51 C-4.74 51 -13.48 51 -23 51 C-23 42.26 -23 33.52 -23 25 C-14.26 25 -5.52 25 4 25 C4 16.42 4 7.84 4 0 C1.36 0 -1.28 0 0 0 Z" fill="#FEFEFD" transform="translate(78,32)"/>

  <!-- 听诊器圆盘（深色细节）-->
  <circle cx="78" cy="88" r="16" fill="#000000"/>
  <circle cx="78" cy="88" r="11" fill="#FEFEFD"/>
  <circle cx="78" cy="88" r="6" fill="#F6A35A"/>

  <!-- 听诊器管线（连接十字与圆盘）-->
  <path d="M0 0 C-2 -8 -4 -16 -6 -24 C-8.8 -24 -11.6 -24 -15 -24 C-15 -16 -15 -8 -15 0 Z" fill="#000000" transform="translate(78,64)"/>
  <path d="M0 0 C-1.5 -6 -3 -12 -4.5 -18 C-6 -18 -7.5 -18 -9 -18 C-9 -12 -9 -6 -9 0 Z" fill="#FEFEFD" transform="translate(78,64)"/>

  <!-- 高光小块（与原风格一致）-->
  <path d="M0 0 C4.95 0 9.9 0 15 0 C14 5 14 5 12 8 C8.25 10.5 5.75 10.8 3 10.5 C1.35 9.15 0.45 7.35 0 5 C0 3.33 0 1.66 0 0 Z" fill="#FBD9B7" transform="translate(68,44)"/>

  <!-- 四角阴影装饰（保持原风格统一）-->
  <path d="M0 0 C0.99 1.32 1.98 2.64 3 4 C5.88117056 7.0289229 8.63820806 9.47865604 12 12 C8.04 12 4.08 12 0 12 C0 8.04 0 4.08 0 0 Z" fill="#000000" transform="translate(0,132)"/>
  <path d="M0 0 C3.96 0 7.92 0 12 0 C12 3.96 12 7.92 12 12 C11.01 10.68 10.02 9.36 9 8 C6.11882944 4.9710771 3.36179194 2.52134396 0 0 Z" fill="#000000" transform="translate(132,0)"/>
  <path d="M0 0 C3.96 0 7.92 0 12 0 C10.68 0.99 9.36 1.98 8 3 C4.9710771 5.88117056 2.52134396 8.63820806 0 12 C0 8.04 0 4.08 0 0 Z" fill="#000000" transform="translate(0,0)"/>
  <path d="M0 0 C0.33 0 0.66 0 1 0 C1 3.96 1 7.92 1 12 C-2.96 12 -6.92 12 -11 12 C-9.68 11.01 -8.36 10.02 -7 9 C-3.98894452 6.20401991 -1.5626448 3.8355827 0 0 Z" fill="#000000" transform="translate(143,132)"/>
</svg>