<?xml version="1.0" encoding="UTF-8"?>
<svg version="1.1" xmlns="http://www.w3.org/2000/svg" width="144" height="144" viewBox="0 0 144 144">
    <rect x="0" y="0" width="144" height="144" rx="24" ry="24" fill="#F6A155"/>
    
    <path d="M34 32 H110 C114.4 32 118 35.6 118 40 V90 C118 94.4 114.4 98 110 98 H86 L90 108 C90.5 109.5 89.5 112 87 112 H57 C54.5 112 53.5 109.5 54 108 L58 98 H34 C29.6 98 26 94.4 26 90 V40 C26 35.6 29.6 32 34 32 Z" fill="#FEFEFD"/>
    
    <path d="M36 42 H108 C110.2 42 112 43.8 112 46 V84 C112 86.2 110.2 88 108 88 H36 C33.8 88 32 86.2 32 84 V46 C32 43.8 33.8 42 36 42 Z" fill="#FBD9B7"/>
    
    <path d="M66 52 H78 V60 H86 C87.6 60 89 61.4 89 63 V71 C89 72.6 87.6 74 86 74 H78 V82 C78 83.6 76.6 85 75 85 H69 C67.4 85 66 83.6 66 82 V74 H58 C56.4 74 55 72.6 55 71 V63 C55 61.4 56.4 60 58 60 H66 V52 Z" fill="#D32F2F"/>
    
    <path d="M56 108 L54 108 L52 112 H92 L90 108 L88 108" fill="#FBD9B7" opacity="0.5"/>
</svg>