<svg width="500" height="320" viewBox="0 0 500 320" fill="none" xmlns="http://www.w3.org/2000/svg">
  <defs>
    <filter id="stat-panel-shadow" x="-50" y="-30" width="600" height="400" filterUnits="userSpaceOnUse">
      <feDropShadow dx="0" dy="20" stdDeviation="25" flood-color="#000" flood-opacity="0.1"/>
    </filter>
  </defs>

  <g filter="url(#stat-panel-shadow)">
    <rect x="30" y="30" width="440" height="260" rx="28" fill="#FFFFFF"/>
    <rect x="30" y="30" width="440" height="260" rx="28" stroke="#CED4DA" stroke-width="2"/>
  </g>

  <path d="M30 58 C30 42.536 42.536 30 58 30 H442 C457.464 30 470 42.536 470 58 V80 H30 V58 Z" fill="#F8F9FA"/>
  <line x1="30" y1="80" x2="470" y2="80" stroke="#DEE2E6" stroke-width="1.5"/>
  <text x="50" y="60" font-family="sans-serif" font-size="18" font-weight="bold" fill="#212529">设备资产健康统计</text>

  <g transform="translate(135, 185)">
    <circle r="65" stroke="#E9ECEF" stroke-width="15" fill="none"/>
    <circle r="65" stroke="#3B82F6" stroke-width="15" fill="none" stroke-dasharray="320 408" stroke-linecap="round" transform="rotate(-90)"/>
    <text text-anchor="middle" font-family="sans-serif" y="8" font-size="28" font-weight="900" fill="#111827">92%</text>
    <text text-anchor="middle" font-family="sans-serif" y="28" font-size="12" fill="#6C757D">健康指数</text>
  </g>

  <g transform="translate(260, 130)">
    <rect width="180" height="40" rx="10" fill="#F0F9FF"/>
    <text x="15" y="26" font-family="sans-serif" font-size="14" fill="#0369A1">在线: 1,102</text>
    
    <rect y="55" width="180" height="40" rx="10" fill="#FFF7ED"/>
    <text x="15" y="81" font-family="sans-serif" font-size="14" fill="#9A3412">异常: 014</text>
    
    <rect y="110" width="180" height="40" rx="10" fill="#F8FAFC"/>
    <text x="15" y="136" font-family="sans-serif" font-size="14" fill="#475569">离线: 168</text>
  </g>
</svg>