<svg width="1200" height="1200" viewBox="0 0 1200 1200" xmlns="http://www.w3.org/2000/svg">
  <defs>
    <filter id="cardShadow" x="-10%" y="-10%" width="120%" height="120%">
      <feGaussianBlur in="SourceAlpha" stdDeviation="4" />
      <feOffset dx="0" dy="2" result="offsetblur" />
      <feComponentTransfer><feFuncA type="linear" slope="0.12"/></feComponentTransfer>
      <feMerge><feMergeNode/><feMergeNode in="SourceGraphic"/></feMerge>
    </filter>
  </defs>

  <rect width="1200" height="1200" fill="#EDF2F7" />

  <g transform="translate(40, 30)">
    <rect width="265" height="80" rx="12" fill="#FFFFFF" filter="url(#cardShadow)"/>
    <text x="20" y="30" font-family="sans-serif" font-size="12" fill="#64748B">总设备</text>
    <text x="20" y="65" font-family="Arial" font-size="32" font-weight="900" fill="#1E293B">15 <tspan font-size="14" font-weight="normal" fill="#94A3B8">Units</tspan></text>
    
    <g transform="translate(285, 0)">
      <rect width="265" height="80" rx="12" fill="#FFFFFF" filter="url(#cardShadow)"/>
      <text x="20" y="30" font-family="sans-serif" font-size="12" fill="#64748B">在线</text>
      <text x="20" y="65" font-family="Arial" font-size="32" font-weight="900" fill="#67C23A">12</text>
    </g>

    <g transform="translate(570, 0)">
      <rect width="265" height="80" rx="12" fill="#FFFFFF" filter="url(#cardShadow)"/>
      <text x="20" y="30" font-family="sans-serif" font-size="12" fill="#64748B">离线告警</text>
      <text x="20" y="65" font-family="Arial" font-size="32" font-weight="900" fill="#F56C6C">03</text>
    </g>

    <g transform="translate(855, 0)">
      <rect width="265" height="80" rx="12" fill="#FFFFFF" filter="url(#cardShadow)"/>
      <text x="20" y="30" font-family="sans-serif" font-size="12" fill="#64748B">执行中任务</text>
      <text x="20" y="65" font-family="Arial" font-size="32" font-weight="900" fill="#E6A23C">05</text>
    </g>
  </g>

  <g transform="translate(40, 140)">
    
    <g transform="translate(0, 0)">
      <rect width="350" height="180" rx="12" fill="#FFFFFF" filter="url(#cardShadow)" stroke="#CBD5E1"/>
      <path d="M 12 0 Q 0 0 0 12 L 0 168 Q 0 180 12 180 L 12 0 Z" fill="#67C23A" /> <text x="25" y="35" font-family="sans-serif" font-size="16" font-weight="bold" fill="#1E293B">1F 艺术大厅</text>
      <text x="25" y="55" font-family="monospace" font-size="12" fill="#94A3B8">IP: 192.168.1.101</text>
      <rect x="255" y="15" width="80" height="24" rx="12" fill="#FFF7E6" />
      <text x="295" y="32" text-anchor="middle" font-family="sans-serif" font-size="11" fill="#D48806">正在播放</text>
      <rect x="25" y="90" width="300" height="65" rx="10" fill="#F1F5F9" />
      <text x="40" y="115" font-family="sans-serif" font-size="11" fill="#94A3B8">音量</text>
      <text x="40" y="145" font-family="Arial" font-size="28" font-weight="900" fill="#334155">65%</text>
      <rect x="200" y="105" width="110" height="36" rx="18" fill="#409EFF" />
      <text x="255" y="128" text-anchor="middle" font-family="sans-serif" font-size="13" font-weight="bold" fill="#FFFFFF">调节音量</text>
    </g>

    <g transform="translate(375, 0)">
      <rect width="350" height="180" rx="12" fill="#FFFFFF" filter="url(#cardShadow)" stroke="#CBD5E1"/>
      <path d="M 12 0 Q 0 0 0 12 L 0 168 Q 0 180 12 180 L 12 0 Z" fill="#67C23A" />
      <text x="25" y="35" font-family="sans-serif" font-size="16" font-weight="bold" fill="#1E293B">2F 办公A区</text>
      <text x="25" y="55" font-family="monospace" font-size="12" fill="#94A3B8">IP: 192.168.1.102</text>
      <rect x="25" y="90" width="300" height="65" rx="10" fill="#F1F5F9" />
      <text x="40" y="145" font-family="Arial" font-size="28" font-weight="900" fill="#334155">42%</text>
      <rect x="200" y="105" width="110" height="36" rx="18" fill="#409EFF" />
      <text x="255" y="128" text-anchor="middle" font-family="sans-serif" font-size="13" font-weight="bold" fill="#FFFFFF">调节音量</text>
    </g>

    <g transform="translate(750, 0)">
      <rect width="350" height="180" rx="12" fill="#FFFFFF" filter="url(#cardShadow)" stroke="#FCA5A5"/>
      <path d="M 12 0 Q 0 0 0 12 L 0 168 Q 0 180 12 180 L 12 0 Z" fill="#F56C6C" /> <text x="25" y="35" font-family="sans-serif" font-size="16" font-weight="bold" fill="#1E293B">B1 停车场北</text>
      <text x="25" y="55" font-family="monospace" font-size="12" fill="#94A3B8">IP: 192.168.1.125</text>
      <rect x="25" y="90" width="300" height="65" rx="10" fill="#FEF2F2" />
      <text x="175" y="130" text-anchor="middle" font-family="sans-serif" font-size="16" font-weight="bold" fill="#F56C6C">通信异常</text>
    </g>

    <g transform="translate(0, 210)">
       <rect width="350" height="180" rx="12" fill="#FFFFFF" filter="url(#cardShadow)" stroke="#CBD5E1"/>
       <path d="M 12 0 Q 0 0 0 12 L 0 168 Q 0 180 12 180 L 12 0 Z" fill="#67C23A" />
       <text x="25" y="35" font-family="sans-serif" font-size="16" font-weight="bold" fill="#1E293B">3F 多功能厅</text>
       <rect x="25" y="90" width="300" height="65" rx="10" fill="#F1F5F9" />
       <text x="40" y="145" font-family="Arial" font-size="28" font-weight="900" fill="#334155">85%</text>
       <rect x="200" y="105" width="110" height="36" rx="18" fill="#409EFF" />
       <text x="255" y="128" text-anchor="middle" font-family="sans-serif" font-size="13" font-weight="bold" fill="#FFFFFF">调节音量</text>
    </g>

    </g>
</svg>