<svg width="265" height="200" viewBox="0 0 265 200" xmlns="http://www.w3.org/2000/svg">
  <defs>
    <filter id="crispShadow" x="-10%" y="-10%" width="120%" height="120%">
      <feGaussianBlur in="SourceAlpha" stdDeviation="3" />
      <feOffset dx="0" dy="2" result="offsetblur" />
      <feComponentTransfer>
        <feFuncA type="linear" slope="0.15" />
      </feComponentTransfer>
      <feMerge>
        <feMergeNode />
        <feMergeNode in="SourceGraphic" />
      </feMerge>
    </filter>
  </defs>

  <rect width="265" height="200" fill="#EDF2F7" />

  <rect x="10" y="10" width="245" height="180" rx="12" fill="#FFFFFF" filter="url(#crispShadow)" stroke="#CBD5E1" stroke-width="1" />

  <path d="M 22 10 L 243 10 Q 255 10 255 22 L 255 55 L 10 55 L 10 22 Q 10 10 22 10" fill="#F8FAFC" stroke="#CBD5E1" stroke-width="1" />
  
  <path d="M 10 22 Q 10 10 22 10 L 22 55 L 10 55 Z" fill="#67C23A" />

  <rect x="160" y="20" width="85" height="26" rx="13" fill="#FFFFFF" stroke="#E1F3D8" stroke-width="1" />
  <text x="202.5" y="38" text-anchor="middle" font-family="sans-serif" font-size="12" font-weight="bold" fill="#67C23A">● 运行中</text>

  <g transform="translate(30, 32)">
    <text font-family="sans-serif" font-size="15" font-weight="700" fill="#1E293B">1F 艺术大厅</text>
    <text y="18" font-family="monospace" font-size="11" fill="#64748B">192.168.1.101</text>
  </g>

  <g transform="translate(25, 100)">
    <rect width="215" height="70" rx="10" fill="#F1F5F9" />
    
    <text x="15" y="20" font-family="sans-serif" font-size="11" fill="#94A3B8">当前音量</text>
    <text x="15" y="52" font-family="Arial" font-size="30" font-weight="900" fill="#334155">65</text>
    <text x="50" y="50" font-family="sans-serif" font-size="12" fill="#94A3B8">%</text>

    <rect x="110" y="18" width="90" height="34" rx="17" fill="#409EFF" />
    <text x="155" y="40" text-anchor="middle" font-family="sans-serif" font-size="12" font-weight="bold" fill="#FFFFFF">调节</text>
  </g>
</svg>