<svg width="1200" height="850" viewBox="0 0 1200 850" xmlns="http://www.w3.org/2000/svg">
  <defs>
    <filter id="cardShadow" x="-20%" y="-20%" width="150%" height="150%">
      <feGaussianBlur in="SourceAlpha" stdDeviation="10" />
      <feOffset dx="0" dy="6" result="offsetblur" />
      <feComponentTransfer>
        <feFuncA type="linear" slope="0.07" />
      </feComponentTransfer>
      <feMerge>
        <feMergeNode />
        <feMergeNode in="SourceGraphic" />
      </feMerge>
    </filter>
    
    <linearGradient id="headerGrad" x1="0%" y1="0%" x2="100%" y2="0%">
      <stop offset="0%" style="stop-color:#409EFF;stop-opacity:0.05" />
      <stop offset="100%" style="stop-color:#409EFF;stop-opacity:0" />
    </linearGradient>
  </defs>

  <rect x="10" y="10" width="1180" height="830" rx="24" fill="#FFFFFF" stroke="#E2E8F0" stroke-width="2" />
  <rect x="25" y="25" width="1150" height="800" rx="20" fill="#F8FAFC" />
  
  <circle cx="55" cy="55" r="6" fill="#FF5F56" />
  <circle cx="75" cy="55" r="6" fill="#FFBD2E" />
  <circle cx="95" cy="55" r="6" fill="#27C93F" />

  <g transform="translate(130, 42)">
    <text font-family="sans-serif" font-size="20" font-weight="700" fill="#1E293B">背景音乐系统 (BGM) 集成看板</text>
    <rect x="0" y="12" width="280" height="4" fill="url(#headerGrad)" rx="2" />
  </g>

  <g transform="translate(50, 100)">
    <g>
      <rect width="265" height="110" rx="16" fill="#FFFFFF" filter="url(#cardShadow)" />
      <text x="24" y="38" font-family="sans-serif" font-size="13" fill="#64748B">总设备台数</text>
      <text x="24" y="85" font-family="Arial" font-size="40" font-weight="900" fill="#409EFF">24</text>
      <rect x="255" y="0" width="10" height="110" rx="0 16 16 0" fill="#409EFF" />
    </g>

    <g transform="translate(285, 0)">
      <rect width="265" height="110" rx="16" fill="#FFFFFF" filter="url(#cardShadow)" />
      <text x="24" y="38" font-family="sans-serif" font-size="13" fill="#64748B">实时在线</text>
      <text x="24" y="85" font-family="Arial" font-size="40" font-weight="900" fill="#67C23A">22</text>
      <rect x="255" y="0" width="10" height="110" rx="0 16 16 0" fill="#67C23A" />
    </g>

    <g transform="translate(570, 0)">
      <rect width="265" height="110" rx="16" fill="#FFFFFF" filter="url(#cardShadow)" />
      <text x="24" y="38" font-family="sans-serif" font-size="13" fill="#64748B">告警离线</text>
      <text x="24" y="85" font-family="Arial" font-size="40" font-weight="900" fill="#F56C6C">02</text>
      <rect x="255" y="0" width="10" height="110" rx="0 16 16 0" fill="#F56C6C" />
    </g>

    <g transform="translate(855, 0)">
      <rect width="265" height="110" rx="16" fill="#FFFFFF" filter="url(#cardShadow)" />
      <text x="24" y="38" font-family="sans-serif" font-size="13" fill="#64748B">正在播放/任务</text>
      <text x="24" y="85" font-family="Arial" font-size="40" font-weight="900" fill="#E6A23C">08</text>
      <rect x="255" y="0" width="10" height="110" rx="0 16 16 0" fill="#E6A23C" />
    </g>
  </g>

  <g transform="translate(50, 250)">
    <text x="5" y="0" font-family="sans-serif" font-size="16" font-weight="700" fill="#334155">终端实时状态</text>
    
    <g transform="translate(0, 30)">
      <rect width="265" height="190" rx="20" fill="#FFFFFF" filter="url(#cardShadow)" stroke="#F1F5F9" />
      
      <rect x="150" y="15" width="100" height="30" rx="15" fill="#F0F9EB" />
      <text x="200" y="35" text-anchor="middle" font-family="sans-serif" font-size="14" font-weight="bold" fill="#67C23A">● 运行中</text>
      
      <text x="20" y="40" font-family="sans-serif" font-size="18" font-weight="700" fill="#1E293B">1F 艺术大厅</text>
      <text x="20" y="62" font-family="monospace" font-size="12" fill="#94A3B8">IP: 192.168.1.101</text>
      
      <rect x="20" y="75" width="80" height="20" rx="4" fill="#FFF7E6" stroke="#FFE7BA" />
      <text x="60" y="89" text-anchor="middle" font-family="sans-serif" font-size="11" fill="#D48806">正在播放...</text>

      <g transform="translate(20, 110)">
        <rect width="225" height="60" rx="12" fill="#F8FAFC" stroke="#F1F5F9" />
        <text x="15" y="38" font-family="Arial" font-size="28" font-weight="900" fill="#334155">65</text>
        <text x="50" y="36" font-family="sans-serif" font-size="12" fill="#94A3B8">%</text>
        
        <rect x="105" y="15" width="105" height="30" rx="15" fill="#409EFF" />
        <text x="157.5" y="34" text-anchor="middle" font-family="sans-serif" font-size="12" font-weight="bold" fill="#FFFFFF">调节音量</text>
      </g>
    </g>

    <g transform="translate(290, 30)">
      <rect width="265" height="190" rx="20" fill="#FFFFFF" filter="url(#cardShadow)" stroke="#F1F5F9" />
      <rect x="150" y="15" width="100" height="30" rx="15" fill="#FEF0F0" />
      <text x="200" y="35" text-anchor="middle" font-family="sans-serif" font-size="14" font-weight="bold" fill="#F56C6C">● 离线</text>
      
      <text x="20" y="40" font-family="sans-serif" font-size="18" font-weight="700" fill="#1E293B">3F 休息区</text>
      <text x="20" y="62" font-family="monospace" font-size="12" fill="#94A3B8">IP: 192.168.1.103</text>
      
      <g transform="translate(20, 110)">
        <rect width="225" height="60" rx="12" fill="#FEF2F2" stroke="#FDE2E2" />
        <text x="112.5" y="37" text-anchor="middle" font-family="sans-serif" font-size="14" font-weight="bold" fill="#F56C6C">设备断开连接</text>
      </g>
    </g>

    <g transform="translate(580, 30)">
      <rect width="265" height="190" rx="20" fill="#FFFFFF" filter="url(#cardShadow)" />
      <rect x="150" y="15" width="100" height="30" rx="15" fill="#F0F9EB" />
      <text x="200" y="35" text-anchor="middle" font-family="sans-serif" font-size="14" font-weight="bold" fill="#67C23A">● 运行中</text>
      <text x="20" y="40" font-family="sans-serif" font-size="18" font-weight="700" fill="#1E293B">2F 报告厅</text>
      <text x="20" y="62" font-family="monospace" font-size="12" fill="#94A3B8">IP: 192.168.1.115</text>
      
      <g transform="translate(20, 110)">
        <rect width="225" height="60" rx="12" fill="#F8FAFC" stroke="#F1F5F9" />
        <text x="15" y="38" font-family="Arial" font-size="28" font-weight="900" fill="#334155">40</text>
        <rect x="105" y="15" width="105" height="30" rx="15" fill="#409EFF" />
        <text x="157.5" y="34" text-anchor="middle" font-family="sans-serif" font-size="12" font-weight="bold" fill="#FFFFFF">调节音量</text>
      </g>
    </g>

    <g transform="translate(870, 30)">
      <rect width="265" height="190" rx="20" fill="#FFFFFF" filter="url(#cardShadow)" />
      <rect x="150" y="15" width="100" height="30" rx="15" fill="#F0F9EB" />
      <text x="200" y="35" text-anchor="middle" font-family="sans-serif" font-size="14" font-weight="bold" fill="#67C23A">● 运行中</text>
      <text x="20" y="40" font-family="sans-serif" font-size="18" font-weight="700" fill="#1E293B">B1 员工餐厅</text>
      <text x="20" y="62" font-family="monospace" font-size="12" fill="#94A3B8">IP: 192.168.1.120</text>
      
      <rect x="20" y="75" width="80" height="20" rx="4" fill="#FFF7E6" stroke="#FFE7BA" />
      <text x="60" y="89" text-anchor="middle" font-family="sans-serif" font-size="11" fill="#D48806">正在播放...</text>

      <g transform="translate(20, 110)">
        <rect width="225" height="60" rx="12" fill="#F8FAFC" stroke="#F1F5F9" />
        <text x="15" y="38" font-family="Arial" font-size="28" font-weight="900" fill="#334155">52</text>
        <rect x="105" y="15" width="105" height="30" rx="15" fill="#409EFF" />
        <text x="157.5" y="34" text-anchor="middle" font-family="sans-serif" font-size="12" font-weight="bold" fill="#FFFFFF">调节音量</text>
      </g>
    </g>
  </g>

  <text x="600" y="810" text-anchor="middle" font-family="sans-serif" font-size="12" fill="#94A3B8">
    SystemIntegrationGem 智慧园区集成管理系统 | 实时更新: 2025-12-20
  </text>
</svg>