<svg width="1200" height="800" viewBox="0 0 1200 800" xmlns="http://www.w3.org/2000/svg">
  <defs>
    <filter id="ultraSoftShadow" x="-20%" y="-20%" width="150%" height="150%">
      <feGaussianBlur in="SourceAlpha" stdDeviation="10" />
      <feOffset dx="0" dy="6" result="offsetblur" />
      <feComponentTransfer>
        <feFuncA type="linear" slope="0.06" />
      </feComponentTransfer>
      <feMerge>
        <feMergeNode />
        <feMergeNode in="SourceGraphic" />
      </feMerge>
    </filter>

    <linearGradient id="borderGradient" x1="0%" y1="0%" x2="100%" y2="100%">
      <stop offset="0%" style="stop-color:#E2E8F0;stop-opacity:1" />
      <stop offset="100%" style="stop-color:#CBD5E1;stop-opacity:1" />
    </linearGradient>
  </defs>

  <rect x="10" y="10" width="1180" height="780" rx="24" fill="#FFFFFF" stroke="url(#borderGradient)" stroke-width="2" />
  <rect x="25" y="25" width="1150" height="750" rx="20" fill="#F8FAFC" />
  
  <circle cx="55" cy="55" r="6" fill="#FF5F56" />
  <circle cx="75" cy="55" r="6" fill="#FFBD2E" />
  <circle cx="95" cy="55" r="6" fill="#27C93F" />

  <g transform="translate(130, 40)">
    <text font-family="sans-serif" font-size="22" font-weight="700" fill="#1E293B">背景音乐系统集成看板</text>
    <text x="0" y="25" font-family="sans-serif" font-size="12" fill="#64748B" letter-spacing="1">BGM SYSTEM INTEGRATION PLATFORM</text>
  </g>

  <g transform="translate(50, 100)">
    <rect width="350" height="110" rx="16" fill="#FFFFFF" filter="url(#ultraSoftShadow)" />
    <text x="24" y="40" font-family="sans-serif" font-size="13" fill="#64748B" font-weight="600">总设备台数</text>
    <text x="24" y="85" font-family="Arial" font-size="44" font-weight="900" fill="#3B82F6">24</text>
    <text x="85" y="82" font-family="sans-serif" font-size="14" fill="#94A3B8">Units</text>
    <rect x="335" y="0" width="15" height="110" rx="0 16 16 0" fill="#3B82F6" fill-opacity="0.1" />

    <g transform="translate(375, 0)">
      <rect width="350" height="110" rx="16" fill="#FFFFFF" filter="url(#ultraSoftShadow)" />
      <text x="24" y="40" font-family="sans-serif" font-size="13" fill="#64748B" font-weight="600">实时在线</text>
      <text x="24" y="85" font-family="Arial" font-size="44" font-weight="900" fill="#22C55E">22</text>
      <text x="85" y="82" font-family="sans-serif" font-size="14" fill="#94A3B8">Running</text>
      <rect x="335" y="0" width="15" height="110" rx="0 16 16 0" fill="#22C55E" fill-opacity="0.1" />
    </g>

    <g transform="translate(750, 0)">
      <rect width="350" height="110" rx="16" fill="#FFFFFF" filter="url(#ultraSoftShadow)" />
      <text x="24" y="40" font-family="sans-serif" font-size="13" fill="#64748B" font-weight="600">告警离线</text>
      <text x="24" y="85" font-family="Arial" font-size="44" font-weight="900" fill="#EF4444">02</text>
      <text x="85" y="82" font-family="sans-serif" font-size="14" fill="#94A3B8">Offline</text>
      <rect x="335" y="0" width="15" height="110" rx="0 16 16 0" fill="#EF4444" fill-opacity="0.1" />
    </g>
  </g>

  <g transform="translate(50, 250)">
    <text x="5" y="0" font-family="sans-serif" font-size="16" font-weight="700" fill="#334155">终端控制中心</text>
    
    <g transform="translate(0, 30)">
      <rect width="255" height="220" rx="20" fill="#FFFFFF" filter="url(#ultraSoftShadow)" />
      
      <rect x="15" y="15" width="55" height="22" rx="11" fill="#F0F9EB" />
      <text x="42.5" y="31" text-anchor="middle" font-family="sans-serif" font-size="11" font-weight="bold" fill="#67C23A">在线</text>
      
      <text x="20" y="65" font-family="sans-serif" font-size="17" font-weight="700" fill="#1E293B">1F 艺术大厅</text>
      <text x="20" y="85" font-family="monospace" font-size="12" fill="#94A3B8">IP: 192.168.1.101</text>
      
      <g transform="translate(20, 115)">
        <text x="0" y="0" font-family="sans-serif" font-size="12" fill="#64748B">当前音量</text>
        <rect x="0" y="10" width="215" height="80" rx="12" fill="#F8FAFC" stroke="#F1F5F9" />
        
        <text x="107" y="55" text-anchor="middle" font-family="Arial" font-size="36" font-weight="900" fill="#334155">68</text>
        
        <rect x="42" y="65" width="130" height="30" rx="15" fill="#409EFF" />
        <text x="107" y="85" text-anchor="middle" font-family="sans-serif" font-size="12" font-weight="bold" fill="#FFFFFF">点击调节音量</text>
      </g>
    </g>

    <g transform="translate(285, 30)">
      <rect width="255" height="220" rx="20" fill="#FFFFFF" filter="url(#ultraSoftShadow)" />
      <rect x="15" y="15" width="55" height="22" rx="11" fill="#FEF0F0" />
      <text x="42.5" y="31" text-anchor="middle" font-family="sans-serif" font-size="11" font-weight="bold" fill="#F56C6C">离线</text>
      
      <text x="20" y="65" font-family="sans-serif" font-size="17" font-weight="700" fill="#1E293B">3F 休息区</text>
      <text x="20" y="85" font-family="monospace" font-size="12" fill="#94A3B8">IP: 192.168.1.103</text>
      
      <g transform="translate(20, 115)">
        <rect x="0" y="10" width="215" height="80" rx="12" fill="#FEF2F2" stroke="#FEE2E2" />
        <text x="107" y="45" text-anchor="middle" font-family="sans-serif" font-size="14" font-weight="bold" fill="#F56C6C">通讯异常</text>
        <text x="107" y="70" text-anchor="middle" font-family="sans-serif" font-size="11" fill="#FCA5A5">请检查网络连接</text>
      </g>
    </g>

    <g transform="translate(570, 30)">
      <rect width="255" height="220" rx="20" fill="#FFFFFF" filter="url(#ultraSoftShadow)" />
      <rect x="15" y="15" width="55" height="22" rx="11" fill="#F0F9EB" />
      <text x="42.5" y="31" text-anchor="middle" font-family="sans-serif" font-size="11" font-weight="bold" fill="#67C23A">在线</text>
      <text x="20" y="65" font-family="sans-serif" font-size="17" font-weight="700" fill="#1E293B">2F 报告厅</text>
      <text x="20" y="85" font-family="monospace" font-size="12" fill="#94A3B8">IP: 192.168.1.115</text>
      <g transform="translate(20, 115)">
        <text x="0" y="0" font-family="sans-serif" font-size="12" fill="#64748B">当前音量</text>
        <rect x="0" y="10" width="215" height="80" rx="12" fill="#F8FAFC" stroke="#F1F5F9" />
        <text x="107" y="55" text-anchor="middle" font-family="Arial" font-size="36" font-weight="900" fill="#334155">42</text>
        <rect x="42" y="65" width="130" height="30" rx="15" fill="#409EFF" />
        <text x="107" y="85" text-anchor="middle" font-family="sans-serif" font-size="12" font-weight="bold" fill="#FFFFFF">点击调节音量</text>
      </g>
    </g>

    <g transform="translate(855, 30)">
      <rect width="255" height="220" rx="20" fill="#FFFFFF" filter="url(#ultraSoftShadow)" />
      <rect x="15" y="15" width="55" height="22" rx="11" fill="#F0F9EB" />
      <text x="42.5" y="31" text-anchor="middle" font-family="sans-serif" font-size="11" font-weight="bold" fill="#67C23A">在线</text>
      <text x="20" y="65" font-family="sans-serif" font-size="17" font-weight="700" fill="#1E293B">B1 员工餐厅</text>
      <text x="20" y="85" font-family="monospace" font-size="12" fill="#94A3B8">IP: 192.168.1.120</text>
      <g transform="translate(20, 115)">
        <text x="0" y="0" font-family="sans-serif" font-size="12" fill="#64748B">当前音量</text>
        <rect x="0" y="10" width="215" height="80" rx="12" fill="#F8FAFC" stroke="#F1F5F9" />
        <text x="107" y="55" text-anchor="middle" font-family="Arial" font-size="36" font-weight="900" fill="#334155">55</text>
        <rect x="42" y="65" width="130" height="30" rx="15" fill="#409EFF" />
        <text x="107" y="85" text-anchor="middle" font-family="sans-serif" font-size="12" font-weight="bold" fill="#FFFFFF">点击调节音量</text>
      </g>
    </g>
  </g>

  <g transform="translate(50, 740)">
    <circle cx="10" cy="0" r="3" fill="#94A3B8" />
    <text x="20" y="5" font-family="sans-serif" font-size="11" fill="#94A3B8">系统状态：云端通信正常 (WebSocket Connected)</text>
    <text x="1100" y="5" text-anchor="end" font-family="sans-serif" font-size="11" fill="#CBD5E1">© 2025 SystemIntegrationGem v2.0</text>
  </g>
</svg>