<svg width="1200" height="850" viewBox="0 0 1200 850" xmlns="http://www.w3.org/2000/svg">
  <defs>
    <filter id="softShadow" x="-20%" y="-20%" width="150%" height="150%">
      <feGaussianBlur in="SourceAlpha" stdDeviation="8" />
      <feOffset dx="0" dy="4" result="offsetblur" />
      <feComponentTransfer>
        <feFuncA type="linear" slope="0.08" />
      </feComponentTransfer>
      <feMerge>
        <feMergeNode />
        <feMergeNode in="SourceGraphic" />
      </feMerge>
    </filter>

    <linearGradient id="blueGrad" x1="0%" y1="0%" x2="100%" y2="100%">
      <stop offset="0%" style="stop-color:#409EFF;stop-opacity:0.1" />
      <stop offset="100%" style="stop-color:#409EFF;stop-opacity:0" />
    </linearGradient>
  </defs>

  <rect width="1200" height="850" fill="#F8FAFC" />

  <g transform="translate(40, 30)">
    <text font-family="PingFang SC, Microsoft YaHei, sans-serif" font-size="24" font-weight="600" fill="#1F2937">背景音乐系统总览</text>
    <text x="0" y="30" font-family="sans-serif" font-size="12" fill="#94A3B8">BGM System Integration Management Dashboard</text>
  </g>

  <g transform="translate(40, 90)">
    <g>
      <rect width="360" height="120" rx="16" fill="#FFFFFF" filter="url(#softShadow)" />
      <rect width="360" height="120" rx="16" fill="url(#blueGrad)" />
      <text x="24" y="45" font-family="sans-serif" font-size="14" fill="#64748B">总设备数量</text>
      <text x="24" y="90" font-family="Arial, sans-serif" font-size="42" font-weight="800" fill="#409EFF">24</text>
      <text x="85" y="88" font-family="sans-serif" font-size="14" fill="#94A3B8" font-weight="normal">台</text>
    </g>

    <g transform="translate(385, 0)">
      <rect width="360" height="120" rx="16" fill="#FFFFFF" filter="url(#softShadow)" />
      <text x="24" y="45" font-family="sans-serif" font-size="14" fill="#64748B">在线运行</text>
      <text x="24" y="90" font-family="Arial, sans-serif" font-size="42" font-weight="800" fill="#67C23A">22</text>
      <text x="85" y="88" font-family="sans-serif" font-size="14" fill="#94A3B8">台在线</text>
      <rect x="24" y="105" width="312" height="4" rx="2" fill="#67C23A" fill-opacity="0.1" />
      <rect x="24" y="105" width="280" height="4" rx="2" fill="#67C23A" />
    </g>

    <g transform="translate(770, 0)">
      <rect width="350" height="120" rx="16" fill="#FFFFFF" filter="url(#softShadow)" />
      <text x="24" y="45" font-family="sans-serif" font-size="14" fill="#64748B">异常离线</text>
      <text x="24" y="90" font-family="Arial, sans-serif" font-size="42" font-weight="800" fill="#F56C6C">02</text>
      <text x="85" y="88" font-family="sans-serif" font-size="14" fill="#94A3B8">需排查</text>
      <rect x="24" y="105" width="302" height="4" rx="2" fill="#F56C6C" fill-opacity="0.1" />
      <rect x="24" y="105" width="30" height="4" rx="2" fill="#F56C6C" />
    </g>
  </g>

  <g transform="translate(40, 250)">
    <text x="0" y="0" font-family="sans-serif" font-size="18" font-weight="600" fill="#334155">终端设备列表</text>
    
    <g transform="translate(0, 30)">
      <rect width="265" height="220" rx="20" fill="#FFFFFF" filter="url(#softShadow)" stroke="#F1F5F9" stroke-width="1"/>
      
      <rect x="185" y="20" width="60" height="24" rx="12" fill="#F0F9EB" />
      <text x="215" y="36" text-anchor="middle" font-family="sans-serif" font-size="12" font-weight="bold" fill="#67C23A">● 在线</text>
      
      <text x="20" y="45" font-family="sans-serif" font-size="16" font-weight="bold" fill="#1F2937">1F 艺术大厅</text>
      <text x="20" y="70" font-family="monospace" font-size="12" fill="#94A3B8">192.168.1.101</text>
      
      <text x="20" y="110" font-family="sans-serif" font-size="12" fill="#64748B">当前音量</text>
      <g transform="translate(20, 120)">
        <rect width="225" height="40" rx="8" fill="#F8FAFC" stroke="#E2E8F0" />
        <text x="20" y="26" font-family="Arial" font-size="20" font-weight="800" fill="#334155">68</text>
        <text x="45" y="25" font-family="sans-serif" font-size="12" fill="#94A3B8">%</text>
        <line x1="70" y1="10" x2="70" y2="30" stroke="#E2E8F0" />
        <text x="145" y="25" text-anchor="middle" font-family="sans-serif" font-size="13" font-weight="600" fill="#409EFF">调整音量</text>
      </g>
      
      <rect x="20" y="175" width="225" height="32" rx="6" fill="#409EFF" />
      <text x="132" y="196" text-anchor="middle" font-family="sans-serif" font-size="13" fill="#FFFFFF" font-weight="500">查看详情</text>
    </g>

    <g transform="translate(290, 30)">
      <rect width="265" height="220" rx="20" fill="#FFFFFF" filter="url(#softShadow)" stroke="#F1F5F9" />
      
      <rect x="185" y="20" width="60" height="24" rx="12" fill="#FEF0F0" />
      <text x="215" y="36" text-anchor="middle" font-family="sans-serif" font-size="12" font-weight="bold" fill="#F56C6C">● 离线</text>
      
      <text x="20" y="45" font-family="sans-serif" font-size="16" font-weight="bold" fill="#1F2937">3F 休息区</text>
      <text x="20" y="70" font-family="monospace" font-size="12" fill="#94A3B8">192.168.1.103</text>
      
      <text x="20" y="110" font-family="sans-serif" font-size="12" fill="#94A3B8">当前音量</text>
      <g transform="translate(20, 120)">
        <rect width="225" height="40" rx="8" fill="#FDF2F2" stroke="#FDE2E2" />
        <text x="112" y="25" text-anchor="middle" font-family="Arial" font-size="16" font-weight="bold" fill="#F56C6C">通讯异常</text>
      </g>
      
      <rect x="20" y="175" width="225" height="32" rx="6" fill="#F4F4F5" />
      <text x="132" y="196" text-anchor="middle" font-family="sans-serif" font-size="13" fill="#909399" font-weight="500">重新连接</text>
    </g>

    <g transform="translate(580, 30)">
      <rect width="265" height="220" rx="20" fill="#FFFFFF" filter="url(#softShadow)" stroke="#F1F5F9" />
      <rect x="185" y="20" width="60" height="24" rx="12" fill="#F0F9EB" />
      <text x="215" y="36" text-anchor="middle" font-family="sans-serif" font-size="12" font-weight="bold" fill="#67C23A">● 在线</text>
      <text x="20" y="45" font-family="sans-serif" font-size="16" font-weight="bold" fill="#1F2937">2F 报告厅</text>
      <text x="20" y="70" font-family="monospace" font-size="12" fill="#94A3B8">192.168.1.115</text>
      <text x="20" y="110" font-family="sans-serif" font-size="12" fill="#64748B">当前音量</text>
      <g transform="translate(20, 120)">
        <rect width="225" height="40" rx="8" fill="#F8FAFC" stroke="#E2E8F0" />
        <text x="20" y="26" font-family="Arial" font-size="20" font-weight="800" fill="#334155">42</text>
        <text x="145" y="25" text-anchor="middle" font-family="sans-serif" font-size="13" font-weight="600" fill="#409EFF">调整音量</text>
      </g>
      <rect x="20" y="175" width="225" height="32" rx="6" fill="#409EFF" />
      <text x="132" y="196" text-anchor="middle" font-family="sans-serif" font-size="13" fill="#FFFFFF">查看详情</text>
    </g>

    <g transform="translate(870, 30)">
      <rect width="265" height="220" rx="20" fill="#FFFFFF" filter="url(#softShadow)" stroke="#F1F5F9" />
      <rect x="185" y="20" width="60" height="24" rx="12" fill="#F0F9EB" />
      <text x="215" y="36" text-anchor="middle" font-family="sans-serif" font-size="12" font-weight="bold" fill="#67C23A">● 在线</text>
      <text x="20" y="45" font-family="sans-serif" font-size="16" font-weight="bold" fill="#1F2937">B1 员工餐厅</text>
      <text x="20" y="70" font-family="monospace" font-size="12" fill="#94A3B8">192.168.1.120</text>
      <text x="20" y="110" font-family="sans-serif" font-size="12" fill="#64748B">当前音量</text>
      <g transform="translate(20, 120)">
        <rect width="225" height="40" rx="8" fill="#F8FAFC" stroke="#E2E8F0" />
        <text x="20" y="26" font-family="Arial" font-size="20" font-weight="800" fill="#334155">55</text>
        <text x="145" y="25" text-anchor="middle" font-family="sans-serif" font-size="13" font-weight="600" fill="#409EFF">调整音量</text>
      </g>
      <rect x="20" y="175" width="225" height="32" rx="6" fill="#409EFF" />
      <text x="132" y="196" text-anchor="middle" font-family="sans-serif" font-size="13" fill="#FFFFFF">查看详情</text>
    </g>
  </g>

  <rect x="40" y="800" width="1120" height="1" fill="#E2E8F0" />
  <text x="40" y="830" font-family="sans-serif" font-size="12" fill="#94A3B8">
    数据实时同步中... 刷新时间：2025-12-20 18:05:30  |  Powered by SystemIntegrationGem
  </text>
</svg>