<?xml version="1.0" encoding="UTF-8"?>
<svg version="1.1" xmlns="http://www.w3.org/2000/svg" width="144" height="144" viewBox="0 0 144 144">
    <rect x="0" y="0" width="144" height="144" rx="24" ry="24" fill="#00BCD4"/>
    
    <rect x="44" y="32" width="56" height="80" rx="4" ry="4" fill="#FEFEFD"/>
    
    <rect x="48" y="36" width="48" height="8" fill="#5DADE2"/>
    <rect x="48" y="48" width="48" height="8" fill="#5DADE2"/>
    <rect x="48" y="60" width="48" height="8" fill="#5DADE2"/>

    <rect x="70" y="75" width="4" height="28" rx="2" ry="2" fill="#FFFFFF"/>
    <circle cx="72" cy="105" r="5" fill="#FFFFFF"/>
    
    <circle cx="72" cy="105" r="3" fill="#F44336"/>
    <rect x="71" y="85" width="2" height="20" fill="#F44336"/>
    
    <path d="M52 110 L52 102 L60 102 L60 110 Z M84 110 L84 102 L92 102 L92 110 Z" fill="#607D8B"/>
    <path d="M72 32 C60 32 60 22 72 22 C84 22 84 32 72 32 Z" fill="#FFFFFF" opacity="0.6"/>
    
</svg>