<svg width="256" height="256" viewBox="0 0 1024 1024" xmlns="http://www.w3.org/2000/svg">
  <!-- 背景容器：圆角矩形，颜色采用了与蓝/粉搭配和谐的紫色 -->
  <rect x="0" y="0" width="1024" height="1024" rx="220" ry="220" fill="#9F7AEA" />
  
  <!-- 图标主体：圆润的音乐符 -->
  <path d="M784.6 226.4c-9.4-4.2-20.2-2.6-28.2 4.2L428.8 456.2c-6.8 5.6-10.8 14-10.8 22.8v220.6c-27.4-23.8-67.6-35.6-110-24.6-60.6 15.8-98.8 76.2-85.2 135 11.2 48.2 56.6 82.8 106.2 82.8 5.6 0 11.2-0.4 16.8-1.4 60.6-10.8 102.2-67.2 102.2-128.6V562l300-202v177.6c-27.4-23.8-67.6-35.6-110-24.6-60.6 15.8-98.8 76.2-85.2 135 11.2 48.2 56.6 82.8 106.2 82.8 5.6 0 11.2-0.4 16.8-1.4 60.6-10.8 102.2-67.2 102.2-128.6V252c0-10.6-5.8-20.4-14.4-25.6z" fill="#ffffff"/>
</svg>