<svg viewBox="0 0 256 256" xmlns="http://www.w3.org/2000/svg">
  <path fill="#66BB6A" d="M48 0h160l48 48v160l-48 48H48L0 208V48z"/>
  <path fill="#FFF" fill-opacity="0.2" d="M24 24h32v16H24v32H8V24zm208 0h-32v16h32v32h16V24zM24 232h32v-16H24v-32H8v48zm208 0h-32v-16h32v-32h16v48z"/>
  <path fill="#FFFFFF" d="M128 56c-48.6 0-88 39.4-88 88 0 16.3 4.4 31.6 12.1 44.9l14.4-11.5C61.4 167.3 58 156 58 144c0-38.7 31.3-70 70-70s70 31.3 70 70c0 12-3.4 23.3-9.5 33.4l14.3 11.5c7.7-13.3 12.2-28.6 12.2-44.9 0-48.6-39.4-88-88-88zm-20 118h40v14h-40v-14zm20-10l-28 42h56l-28-42z"/>
</svg>