<svg viewBox="0 0 256 256" xmlns="http://www.w3.org/2000/svg">
  <rect width="256" height="256" rx="32" fill="#6E8EFB"/>
  <path fill="#FFFFFF" d="M128 64c-17.7 0-32 14.3-32 32 0 13.9 8.9 25.7 21.3 30.1l-25.3 42.2C81.9 164.9 71.3 162 64 162c-17.7 0-32 14.3-32 32s14.3 32 32 32 32-14.3 32-32c0-5.8-1.6-11.2-4.3-15.9l25.8-43c6.5 2.1 13.5 2.1 20 0l25.8 43c-2.7 4.7-4.3 10.1-4.3 15.9 0 17.7 14.3 32 32 32s32-14.3 32-32-14.3-32-32-32c-7.3 0-17.9 2.9-28 6.3l-25.3-42.2c12.4-4.4 21.3-16.2 21.3-30.1 0-17.7-14.3-32-32-32z"/>
</svg>