<svg xmlns="http://www.w3.org/2000/svg" viewBox="0 0 1920 1080" width="100%" height="100%" font-family="'Microsoft YaHei', sans-serif;">
  
  <!-- 1. 全局背景 -->
  <rect x="0" y="0" width="1920" height="1080" fill="#F1F5F9" />

  <!-- ========================================== -->
  <!-- 顶栏：全局通风设备状态总览 -->
  <!-- ========================================== -->
  <g transform="translate(60, 40)">
    <!-- 顶栏外框 -->
    <rect x="0" y="0" width="1800" height="120" rx="8" fill="#FFFFFF" stroke="#CBD5E1" stroke-width="1" />
    
    <rect x="40" y="35" width="6" height="50" rx="3" fill="#0F172A" />
    <text x="65" y="65" font-size="28" font-weight="bold" fill="#0F172A">全域通风机组中枢面板</text>
    <text x="65" y="90" font-size="14" fill="#64748B">Centralized HVAC &amp; Ventilation Monitoring System</text>

    <!-- 指标分隔线与数据 -->
    <rect x="450" y="30" width="1" height="60" fill="#E2E8F0" />
    <text x="500" y="50" font-size="16" fill="#64748b">系统总数 (Total Units)</text>
    <text x="500" y="90" font-size="42" font-weight="bold" fill="#0F172A">456</text>

    <rect x="750" y="30" width="1" height="60" fill="#E2E8F0" />
    <text x="800" y="50" font-size="16" fill="#64748b">正常运行 (Online / Running)</text>
    <text x="800" y="90" font-size="42" font-weight="bold" fill="#10B981">439</text>

    <rect x="1080" y="30" width="1" height="60" fill="#E2E8F0" />
    <text x="1130" y="50" font-size="16" fill="#64748b">待机或停止 (Standby / Off)</text>
    <text x="1130" y="90" font-size="42" font-weight="bold" fill="#64748B">12</text>

    <!-- 异常告警警示牌 -->
    <rect x="1480" y="25" width="280" height="70" rx="8" fill="#FEF2F2" stroke="#FCA5A5" stroke-width="1" />
    <circle cx="1520" cy="60" r="8" fill="#EF4444" />
    <text x="1545" y="70" font-size="32" font-weight="bold" fill="#EF4444">5</text>
    <text x="1575" y="67" font-size="18" font-weight="bold" fill="#B91C1C">台设备触发故障</text>
  </g>

  <!-- ========================================== -->
  <!-- 第一排：地面楼宇区域 (Y=200) -->
  <!-- ========================================== -->
  
  <!-- 1. 研发楼 -->
  <g transform="translate(60, 200)">
    <!-- 卡片底板与彩色顶部饰条 -->
    <rect x="0" y="0" width="420" height="370" rx="8" fill="#FFFFFF" stroke="#CBD5E1" stroke-width="1" />
    <rect x="0" y="0" width="420" height="8" rx="4" fill="#6366F1" />
    
    <text x="20" y="50" font-size="22" font-weight="bold" fill="#0F172A">研发大楼 (R&amp;D)</text>
    <rect x="330" y="25" width="70" height="30" rx="15" fill="#FEF2F2" stroke="#FCA5A5" stroke-width="1"/>
    <text x="365" y="45" font-size="14" font-weight="bold" fill="#EF4444" text-anchor="middle">告警</text>
    
    <!-- SF 行 (故障) -->
    <rect x="20" y="80" width="380" height="80" rx="6" fill="#FEF2F2" stroke="#FCA5A5" stroke-width="1" />
    <circle cx="65" cy="120" r="22" fill="#0F172A" />
    <text x="65" y="126" font-size="16" font-weight="bold" fill="#FDE68A" text-anchor="middle">SF</text>
    <text x="110" y="105" font-size="13" fill="#64748B">总数</text><text x="110" y="135" font-size="24" font-weight="bold" fill="#0F172A">32</text>
    <text x="180" y="105" font-size="13" fill="#64748B">运行</text><text x="180" y="135" font-size="24" font-weight="bold" fill="#10B981">30</text>
    <text x="250" y="105" font-size="13" fill="#64748B">故障</text><text x="250" y="135" font-size="24" font-weight="bold" fill="#EF4444">2</text>
    <rect x="310" y="105" width="70" height="30" rx="15" fill="#EF4444" />
    <text x="345" y="125" font-size="13" font-weight="bold" fill="#FFFFFF" text-anchor="middle">2 故障</text>

    <!-- EF 行 -->
    <rect x="20" y="175" width="380" height="80" rx="6" fill="#F8FAFC" stroke="#E2E8F0" stroke-width="1" />
    <circle cx="65" cy="215" r="22" fill="#0F172A" />
    <text x="65" y="221" font-size="16" font-weight="bold" fill="#FDE68A" text-anchor="middle">EF</text>
    <text x="110" y="200" font-size="13" fill="#64748B">总数</text><text x="110" y="230" font-size="24" font-weight="bold" fill="#0F172A">36</text>
    <text x="180" y="200" font-size="13" fill="#64748B">运行</text><text x="180" y="230" font-size="24" font-weight="bold" fill="#10B981">36</text>
    <text x="250" y="200" font-size="13" fill="#64748B">故障</text><text x="250" y="230" font-size="24" font-weight="bold" fill="#94A3B8">0</text>
    <rect x="310" y="200" width="70" height="30" rx="15" fill="#D1FAE5" />
    <text x="345" y="220" font-size="13" font-weight="bold" fill="#065F46" text-anchor="middle">正常</text>

    <!-- PF 行 -->
    <rect x="20" y="270" width="380" height="80" rx="6" fill="#F8FAFC" stroke="#E2E8F0" stroke-width="1" />
    <circle cx="65" cy="310" r="22" fill="#0F172A" />
    <text x="65" y="316" font-size="16" font-weight="bold" fill="#FDE68A" text-anchor="middle">PF</text>
    <text x="110" y="295" font-size="13" fill="#64748B">总数</text><text x="110" y="325" font-size="24" font-weight="bold" fill="#0F172A">16</text>
    <text x="180" y="295" font-size="13" fill="#64748B">运行</text><text x="180" y="325" font-size="24" font-weight="bold" fill="#10B981">16</text>
    <text x="250" y="295" font-size="13" fill="#64748B">故障</text><text x="250" y="325" font-size="24" font-weight="bold" fill="#94A3B8">0</text>
    <rect x="310" y="295" width="70" height="30" rx="15" fill="#D1FAE5" />
    <text x="345" y="315" font-size="13" font-weight="bold" fill="#065F46" text-anchor="middle">正常</text>
  </g>

  <!-- 2. 宿舍楼 -->
  <g transform="translate(520, 200)">
    <rect x="0" y="0" width="420" height="370" rx="8" fill="#FFFFFF" stroke="#CBD5E1" stroke-width="1" />
    <rect x="0" y="0" width="420" height="8" rx="4" fill="#F59E0B" />
    
    <text x="20" y="50" font-size="22" font-weight="bold" fill="#0F172A">员工宿舍 (Dorm)</text>
    
    <rect x="20" y="80" width="380" height="80" rx="6" fill="#F8FAFC" stroke="#E2E8F0" stroke-width="1" />
    <circle cx="65" cy="120" r="22" fill="#0F172A" />
    <text x="65" y="126" font-size="16" font-weight="bold" fill="#FDE68A" text-anchor="middle">SF</text>
    <text x="110" y="105" font-size="13" fill="#64748B">总数</text><text x="110" y="135" font-size="24" font-weight="bold" fill="#0F172A">12</text>
    <text x="180" y="105" font-size="13" fill="#64748B">运行</text><text x="180" y="135" font-size="24" font-weight="bold" fill="#10B981">12</text>
    <text x="250" y="105" font-size="13" fill="#64748B">故障</text><text x="250" y="135" font-size="24" font-weight="bold" fill="#94A3B8">0</text>
    <rect x="310" y="105" width="70" height="30" rx="15" fill="#D1FAE5" />
    <text x="345" y="125" font-size="13" font-weight="bold" fill="#065F46" text-anchor="middle">正常</text>

    <!-- EF 停机 -->
    <rect x="20" y="175" width="380" height="80" rx="6" fill="#F1F5F9" stroke="#E2E8F0" stroke-width="1" />
    <circle cx="65" cy="215" r="22" fill="#0F172A" />
    <text x="65" y="221" font-size="16" font-weight="bold" fill="#FDE68A" text-anchor="middle">EF</text>
    <text x="110" y="200" font-size="13" fill="#64748B">总数</text><text x="110" y="230" font-size="24" font-weight="bold" fill="#0F172A">24</text>
    <text x="180" y="200" font-size="13" fill="#64748B">运行</text><text x="180" y="230" font-size="24" font-weight="bold" fill="#10B981">18</text>
    <text x="250" y="200" font-size="13" fill="#64748B">故障</text><text x="250" y="230" font-size="24" font-weight="bold" fill="#94A3B8">0</text>
    <rect x="310" y="200" width="70" height="30" rx="15" fill="#E2E8F0" />
    <text x="345" y="220" font-size="13" font-weight="bold" fill="#475569" text-anchor="middle">6 待机</text>

    <rect x="20" y="270" width="380" height="80" rx="6" fill="#F8FAFC" stroke="#E2E8F0" stroke-width="1" />
    <circle cx="65" cy="310" r="22" fill="#0F172A" />
    <text x="65" y="316" font-size="16" font-weight="bold" fill="#FDE68A" text-anchor="middle">PF</text>
    <text x="110" y="295" font-size="13" fill="#64748B">总数</text><text x="110" y="325" font-size="24" font-weight="bold" fill="#0F172A">6</text>
    <text x="180" y="295" font-size="13" fill="#64748B">运行</text><text x="180" y="325" font-size="24" font-weight="bold" fill="#10B981">6</text>
    <text x="250" y="295" font-size="13" fill="#64748B">故障</text><text x="250" y="325" font-size="24" font-weight="bold" fill="#94A3B8">0</text>
    <rect x="310" y="295" width="70" height="30" rx="15" fill="#D1FAE5" />
    <text x="345" y="315" font-size="13" font-weight="bold" fill="#065F46" text-anchor="middle">正常</text>
  </g>

  <!-- 3. 综合大楼 -->
  <g transform="translate(980, 200)">
    <rect x="0" y="0" width="420" height="370" rx="8" fill="#FFFFFF" stroke="#CBD5E1" stroke-width="1" />
    <rect x="0" y="0" width="420" height="8" rx="4" fill="#8B5CF6" />
    
    <text x="20" y="50" font-size="22" font-weight="bold" fill="#0F172A">综合大楼 (Complex)</text>
    
    <rect x="20" y="80" width="380" height="80" rx="6" fill="#F8FAFC" stroke="#E2E8F0" stroke-width="1" />
    <circle cx="65" cy="120" r="22" fill="#0F172A" />
    <text x="65" y="126" font-size="16" font-weight="bold" fill="#FDE68A" text-anchor="middle">SF</text>
    <text x="110" y="105" font-size="13" fill="#64748B">总数</text><text x="110" y="135" font-size="24" font-weight="bold" fill="#0F172A">45</text>
    <text x="180" y="105" font-size="13" fill="#64748B">运行</text><text x="180" y="135" font-size="24" font-weight="bold" fill="#10B981">45</text>
    <text x="250" y="105" font-size="13" fill="#64748B">故障</text><text x="250" y="135" font-size="24" font-weight="bold" fill="#94A3B8">0</text>
    <rect x="310" y="105" width="70" height="30" rx="15" fill="#D1FAE5" />
    <text x="345" y="125" font-size="13" font-weight="bold" fill="#065F46" text-anchor="middle">正常</text>

    <rect x="20" y="175" width="380" height="80" rx="6" fill="#F8FAFC" stroke="#E2E8F0" stroke-width="1" />
    <circle cx="65" cy="215" r="22" fill="#0F172A" />
    <text x="65" y="221" font-size="16" font-weight="bold" fill="#FDE68A" text-anchor="middle">EF</text>
    <text x="110" y="200" font-size="13" fill="#64748B">总数</text><text x="110" y="230" font-size="24" font-weight="bold" fill="#0F172A">53</text>
    <text x="180" y="200" font-size="13" fill="#64748B">运行</text><text x="180" y="230" font-size="24" font-weight="bold" fill="#10B981">53</text>
    <text x="250" y="200" font-size="13" fill="#64748B">故障</text><text x="250" y="230" font-size="24" font-weight="bold" fill="#94A3B8">0</text>
    <rect x="310" y="200" width="70" height="30" rx="15" fill="#D1FAE5" />
    <text x="345" y="220" font-size="13" font-weight="bold" fill="#065F46" text-anchor="middle">正常</text>

    <rect x="20" y="270" width="380" height="80" rx="6" fill="#F8FAFC" stroke="#E2E8F0" stroke-width="1" />
    <circle cx="65" cy="310" r="22" fill="#0F172A" />
    <text x="65" y="316" font-size="16" font-weight="bold" fill="#FDE68A" text-anchor="middle">PF</text>
    <text x="110" y="295" font-size="13" fill="#64748B">总数</text><text x="110" y="325" font-size="24" font-weight="bold" fill="#0F172A">30</text>
    <text x="180" y="295" font-size="13" fill="#64748B">运行</text><text x="180" y="325" font-size="24" font-weight="bold" fill="#10B981">30</text>
    <text x="250" y="295" font-size="13" fill="#64748B">故障</text><text x="250" y="325" font-size="24" font-weight="bold" fill="#94A3B8">0</text>
    <rect x="310" y="295" width="70" height="30" rx="15" fill="#D1FAE5" />
    <text x="345" y="315" font-size="13" font-weight="bold" fill="#065F46" text-anchor="middle">正常</text>
  </g>

  <!-- 4. 生产厂房 (故障) -->
  <g transform="translate(1440, 200)">
    <rect x="0" y="0" width="420" height="370" rx="8" fill="#FFFFFF" stroke="#CBD5E1" stroke-width="1" />
    <rect x="0" y="0" width="420" height="8" rx="4" fill="#EF4444" />
    
    <text x="20" y="50" font-size="22" font-weight="bold" fill="#0F172A">生产厂房 (Factory)</text>
    <rect x="330" y="25" width="70" height="30" rx="15" fill="#FEF2F2" stroke="#FCA5A5" stroke-width="1"/>
    <text x="365" y="45" font-size="14" font-weight="bold" fill="#EF4444" text-anchor="middle">告警</text>
    
    <rect x="20" y="80" width="380" height="80" rx="6" fill="#F8FAFC" stroke="#E2E8F0" stroke-width="1" />
    <circle cx="65" cy="120" r="22" fill="#0F172A" />
    <text x="65" y="126" font-size="16" font-weight="bold" fill="#FDE68A" text-anchor="middle">SF</text>
    <text x="110" y="105" font-size="13" fill="#64748B">总数</text><text x="110" y="135" font-size="24" font-weight="bold" fill="#0F172A">40</text>
    <text x="180" y="105" font-size="13" fill="#64748B">运行</text><text x="180" y="135" font-size="24" font-weight="bold" fill="#10B981">40</text>
    <text x="250" y="105" font-size="13" fill="#64748B">故障</text><text x="250" y="135" font-size="24" font-weight="bold" fill="#94A3B8">0</text>
    <rect x="310" y="105" width="70" height="30" rx="15" fill="#D1FAE5" />
    <text x="345" y="125" font-size="13" font-weight="bold" fill="#065F46" text-anchor="middle">正常</text>

    <!-- EF 行 (故障) -->
    <rect x="20" y="175" width="380" height="80" rx="6" fill="#FEF2F2" stroke="#FCA5A5" stroke-width="1" />
    <circle cx="65" cy="215" r="22" fill="#0F172A" />
    <text x="65" y="221" font-size="16" font-weight="bold" fill="#FDE68A" text-anchor="middle">EF</text>
    <text x="110" y="200" font-size="13" fill="#64748B">总数</text><text x="110" y="230" font-size="24" font-weight="bold" fill="#0F172A">26</text>
    <text x="180" y="200" font-size="13" fill="#64748B">运行</text><text x="180" y="230" font-size="24" font-weight="bold" fill="#10B981">23</text>
    <text x="250" y="200" font-size="13" fill="#64748B">故障</text><text x="250" y="230" font-size="24" font-weight="bold" fill="#EF4444">3</text>
    <rect x="310" y="200" width="70" height="30" rx="15" fill="#EF4444" />
    <text x="345" y="220" font-size="13" font-weight="bold" fill="#FFFFFF" text-anchor="middle">3 故障</text>

    <rect x="20" y="270" width="380" height="80" rx="6" fill="#F8FAFC" stroke="#E2E8F0" stroke-width="1" />
    <circle cx="65" cy="310" r="22" fill="#0F172A" />
    <text x="65" y="316" font-size="16" font-weight="bold" fill="#FDE68A" text-anchor="middle">PF</text>
    <text x="110" y="295" font-size="13" fill="#64748B">总数</text><text x="110" y="325" font-size="24" font-weight="bold" fill="#0F172A">30</text>
    <text x="180" y="295" font-size="13" fill="#64748B">运行</text><text x="180" y="325" font-size="24" font-weight="bold" fill="#10B981">30</text>
    <text x="250" y="295" font-size="13" fill="#64748B">故障</text><text x="250" y="325" font-size="24" font-weight="bold" fill="#94A3B8">0</text>
    <rect x="310" y="295" width="70" height="30" rx="15" fill="#D1FAE5" />
    <text x="345" y="315" font-size="13" font-weight="bold" fill="#065F46" text-anchor="middle">正常</text>
  </g>

  <!-- ========================================== -->
  <!-- 第二排：地下室空间 (Y=600) -->
  <!-- ========================================== -->

  <!-- 5. BMF -->
  <g transform="translate(60, 600)">
    <rect x="0" y="0" width="420" height="370" rx="8" fill="#FFFFFF" stroke="#CBD5E1" stroke-width="1" />
    <rect x="0" y="0" width="420" height="8" rx="4" fill="#0EA5E9" />
    
    <text x="20" y="50" font-size="22" font-weight="bold" fill="#0F172A">BMF 地下夹层</text>
    
    <rect x="20" y="80" width="380" height="80" rx="6" fill="#F8FAFC" stroke="#E2E8F0" stroke-width="1" />
    <circle cx="65" cy="120" r="22" fill="#0F172A" />
    <text x="65" y="126" font-size="16" font-weight="bold" fill="#FDE68A" text-anchor="middle">SF</text>
    <text x="110" y="105" font-size="13" fill="#64748B">总数</text><text x="110" y="135" font-size="24" font-weight="bold" fill="#0F172A">10</text>
    <text x="180" y="105" font-size="13" fill="#64748B">运行</text><text x="180" y="135" font-size="24" font-weight="bold" fill="#10B981">10</text>
    <text x="250" y="105" font-size="13" fill="#64748B">故障</text><text x="250" y="135" font-size="24" font-weight="bold" fill="#94A3B8">0</text>
    <rect x="310" y="105" width="70" height="30" rx="15" fill="#D1FAE5" />
    <text x="345" y="125" font-size="13" font-weight="bold" fill="#065F46" text-anchor="middle">正常</text>

    <rect x="20" y="175" width="380" height="80" rx="6" fill="#F8FAFC" stroke="#E2E8F0" stroke-width="1" />
    <circle cx="65" cy="215" r="22" fill="#0F172A" />
    <text x="65" y="221" font-size="16" font-weight="bold" fill="#FDE68A" text-anchor="middle">EF</text>
    <text x="110" y="200" font-size="13" fill="#64748B">总数</text><text x="110" y="230" font-size="24" font-weight="bold" fill="#0F172A">8</text>
    <text x="180" y="200" font-size="13" fill="#64748B">运行</text><text x="180" y="230" font-size="24" font-weight="bold" fill="#10B981">8</text>
    <text x="250" y="200" font-size="13" fill="#64748B">故障</text><text x="250" y="230" font-size="24" font-weight="bold" fill="#94A3B8">0</text>
    <rect x="310" y="200" width="70" height="30" rx="15" fill="#D1FAE5" />
    <text x="345" y="220" font-size="13" font-weight="bold" fill="#065F46" text-anchor="middle">正常</text>

    <rect x="20" y="270" width="380" height="80" rx="6" fill="#F8FAFC" stroke="#E2E8F0" stroke-width="1" />
    <circle cx="65" cy="310" r="22" fill="#0F172A" />
    <text x="65" y="316" font-size="16" font-weight="bold" fill="#FDE68A" text-anchor="middle">PF</text>
    <text x="110" y="295" font-size="13" fill="#64748B">总数</text><text x="110" y="325" font-size="24" font-weight="bold" fill="#0F172A">4</text>
    <text x="180" y="295" font-size="13" fill="#64748B">运行</text><text x="180" y="325" font-size="24" font-weight="bold" fill="#10B981">4</text>
    <text x="250" y="295" font-size="13" fill="#64748B">故障</text><text x="250" y="325" font-size="24" font-weight="bold" fill="#94A3B8">0</text>
    <rect x="310" y="295" width="70" height="30" rx="15" fill="#D1FAE5" />
    <text x="345" y="315" font-size="13" font-weight="bold" fill="#065F46" text-anchor="middle">正常</text>
  </g>

  <!-- 6. B1F -->
  <g transform="translate(520, 600)">
    <rect x="0" y="0" width="420" height="370" rx="8" fill="#FFFFFF" stroke="#CBD5E1" stroke-width="1" />
    <rect x="0" y="0" width="420" height="8" rx="4" fill="#0EA5E9" />
    
    <text x="20" y="50" font-size="22" font-weight="bold" fill="#0F172A">B1F 地下一层</text>
    
    <rect x="20" y="80" width="380" height="80" rx="6" fill="#F8FAFC" stroke="#E2E8F0" stroke-width="1" />
    <circle cx="65" cy="120" r="22" fill="#0F172A" />
    <text x="65" y="126" font-size="16" font-weight="bold" fill="#FDE68A" text-anchor="middle">SF</text>
    <text x="110" y="105" font-size="13" fill="#64748B">总数</text><text x="110" y="135" font-size="24" font-weight="bold" fill="#0F172A">12</text>
    <text x="180" y="105" font-size="13" fill="#64748B">运行</text><text x="180" y="135" font-size="24" font-weight="bold" fill="#10B981">12</text>
    <text x="250" y="105" font-size="13" fill="#64748B">故障</text><text x="250" y="135" font-size="24" font-weight="bold" fill="#94A3B8">0</text>
    <rect x="310" y="105" width="70" height="30" rx="15" fill="#D1FAE5" />
    <text x="345" y="125" font-size="13" font-weight="bold" fill="#065F46" text-anchor="middle">正常</text>

    <rect x="20" y="175" width="380" height="80" rx="6" fill="#F8FAFC" stroke="#E2E8F0" stroke-width="1" />
    <circle cx="65" cy="215" r="22" fill="#0F172A" />
    <text x="65" y="221" font-size="16" font-weight="bold" fill="#FDE68A" text-anchor="middle">EF</text>
    <text x="110" y="200" font-size="13" fill="#64748B">总数</text><text x="110" y="230" font-size="24" font-weight="bold" fill="#0F172A">10</text>
    <text x="180" y="200" font-size="13" fill="#64748B">运行</text><text x="180" y="230" font-size="24" font-weight="bold" fill="#10B981">10</text>
    <text x="250" y="200" font-size="13" fill="#64748B">故障</text><text x="250" y="230" font-size="24" font-weight="bold" fill="#94A3B8">0</text>
    <rect x="310" y="200" width="70" height="30" rx="15" fill="#D1FAE5" />
    <text x="345" y="220" font-size="13" font-weight="bold" fill="#065F46" text-anchor="middle">正常</text>

    <rect x="20" y="270" width="380" height="80" rx="6" fill="#F8FAFC" stroke="#E2E8F0" stroke-width="1" />
    <circle cx="65" cy="310" r="22" fill="#0F172A" />
    <text x="65" y="316" font-size="16" font-weight="bold" fill="#FDE68A" text-anchor="middle">PF</text>
    <text x="110" y="295" font-size="13" fill="#64748B">总数</text><text x="110" y="325" font-size="24" font-weight="bold" fill="#0F172A">6</text>
    <text x="180" y="295" font-size="13" fill="#64748B">运行</text><text x="180" y="325" font-size="24" font-weight="bold" fill="#10B981">6</text>
    <text x="250" y="295" font-size="13" fill="#64748B">故障</text><text x="250" y="325" font-size="24" font-weight="bold" fill="#94A3B8">0</text>
    <rect x="310" y="295" width="70" height="30" rx="15" fill="#D1FAE5" />
    <text x="345" y="315" font-size="13" font-weight="bold" fill="#065F46" text-anchor="middle">正常</text>
  </g>

  <!-- 7. B2F (包含PF故障) -->
  <g transform="translate(980, 600)">
    <rect x="0" y="0" width="420" height="370" rx="8" fill="#FFFFFF" stroke="#CBD5E1" stroke-width="1" />
    <rect x="0" y="0" width="420" height="8" rx="4" fill="#EF4444" />
    
    <text x="20" y="50" font-size="22" font-weight="bold" fill="#0F172A">B2F 地下二层</text>
    <rect x="330" y="25" width="70" height="30" rx="15" fill="#FEF2F2" stroke="#FCA5A5" stroke-width="1"/>
    <text x="365" y="45" font-size="14" font-weight="bold" fill="#EF4444" text-anchor="middle">告警</text>
    
    <rect x="20" y="80" width="380" height="80" rx="6" fill="#F8FAFC" stroke="#E2E8F0" stroke-width="1" />
    <circle cx="65" cy="120" r="22" fill="#0F172A" />
    <text x="65" y="126" font-size="16" font-weight="bold" fill="#FDE68A" text-anchor="middle">SF</text>
    <text x="110" y="105" font-size="13" fill="#64748B">总数</text><text x="110" y="135" font-size="24" font-weight="bold" fill="#0F172A">10</text>
    <text x="180" y="105" font-size="13" fill="#64748B">运行</text><text x="180" y="135" font-size="24" font-weight="bold" fill="#10B981">10</text>
    <text x="250" y="105" font-size="13" fill="#64748B">故障</text><text x="250" y="135" font-size="24" font-weight="bold" fill="#94A3B8">0</text>
    <rect x="310" y="105" width="70" height="30" rx="15" fill="#D1FAE5" />
    <text x="345" y="125" font-size="13" font-weight="bold" fill="#065F46" text-anchor="middle">正常</text>

    <rect x="20" y="175" width="380" height="80" rx="6" fill="#F8FAFC" stroke="#E2E8F0" stroke-width="1" />
    <circle cx="65" cy="215" r="22" fill="#0F172A" />
    <text x="65" y="221" font-size="16" font-weight="bold" fill="#FDE68A" text-anchor="middle">EF</text>
    <text x="110" y="200" font-size="13" fill="#64748B">总数</text><text x="110" y="230" font-size="24" font-weight="bold" fill="#0F172A">15</text>
    <text x="180" y="200" font-size="13" fill="#64748B">运行</text><text x="180" y="230" font-size="24" font-weight="bold" fill="#10B981">15</text>
    <text x="250" y="200" font-size="13" fill="#64748B">故障</text><text x="250" y="230" font-size="24" font-weight="bold" fill="#94A3B8">0</text>
    <rect x="310" y="200" width="70" height="30" rx="15" fill="#D1FAE5" />
    <text x="345" y="220" font-size="13" font-weight="bold" fill="#065F46" text-anchor="middle">正常</text>

    <!-- PF 行 (故障) -->
    <rect x="20" y="270" width="380" height="80" rx="6" fill="#FEF2F2" stroke="#FCA5A5" stroke-width="1" />
    <circle cx="65" cy="310" r="22" fill="#0F172A" />
    <text x="65" y="316" font-size="16" font-weight="bold" fill="#FDE68A" text-anchor="middle">PF</text>
    <text x="110" y="295" font-size="13" fill="#64748B">总数</text><text x="110" y="325" font-size="24" font-weight="bold" fill="#0F172A">4</text>
    <text x="180" y="295" font-size="13" fill="#64748B">运行</text><text x="180" y="325" font-size="24" font-weight="bold" fill="#10B981">3</text>
    <text x="250" y="295" font-size="13" fill="#64748B">故障</text><text x="250" y="325" font-size="24" font-weight="bold" fill="#EF4444">1</text>
    <rect x="310" y="295" width="70" height="30" rx="15" fill="#EF4444" />
    <text x="345" y="315" font-size="13" font-weight="bold" fill="#FFFFFF" text-anchor="middle">1 故障</text>
  </g>

  <!-- 8. B3F -->
  <g transform="translate(1440, 600)">
    <rect x="0" y="0" width="420" height="370" rx="8" fill="#FFFFFF" stroke="#CBD5E1" stroke-width="1" />
    <rect x="0" y="0" width="420" height="8" rx="4" fill="#0EA5E9" />
    
    <text x="20" y="50" font-size="22" font-weight="bold" fill="#0F172A">B3F 地下三层</text>
    
    <rect x="20" y="80" width="380" height="80" rx="6" fill="#F8FAFC" stroke="#E2E8F0" stroke-width="1" />
    <circle cx="65" cy="120" r="22" fill="#0F172A" />
    <text x="65" y="126" font-size="16" font-weight="bold" fill="#FDE68A" text-anchor="middle">SF</text>
    <text x="110" y="105" font-size="13" fill="#64748B">总数</text><text x="110" y="135" font-size="24" font-weight="bold" fill="#0F172A">12</text>
    <text x="180" y="105" font-size="13" fill="#64748B">运行</text><text x="180" y="135" font-size="24" font-weight="bold" fill="#10B981">12</text>
    <text x="250" y="105" font-size="13" fill="#64748B">故障</text><text x="250" y="135" font-size="24" font-weight="bold" fill="#94A3B8">0</text>
    <rect x="310" y="105" width="70" height="30" rx="15" fill="#D1FAE5" />
    <text x="345" y="125" font-size="13" font-weight="bold" fill="#065F46" text-anchor="middle">正常</text>

    <rect x="20" y="175" width="380" height="80" rx="6" fill="#F8FAFC" stroke="#E2E8F0" stroke-width="1" />
    <circle cx="65" cy="215" r="22" fill="#0F172A" />
    <text x="65" y="221" font-size="16" font-weight="bold" fill="#FDE68A" text-anchor="middle">EF</text>
    <text x="110" y="200" font-size="13" fill="#64748B">总数</text><text x="110" y="230" font-size="24" font-weight="bold" fill="#0F172A">11</text>
    <text x="180" y="200" font-size="13" fill="#64748B">运行</text><text x="180" y="230" font-size="24" font-weight="bold" fill="#10B981">11</text>
    <text x="250" y="200" font-size="13" fill="#64748B">故障</text><text x="250" y="230" font-size="24" font-weight="bold" fill="#94A3B8">0</text>
    <rect x="310" y="200" width="70" height="30" rx="15" fill="#D1FAE5" />
    <text x="345" y="220" font-size="13" font-weight="bold" fill="#065F46" text-anchor="middle">正常</text>

    <rect x="20" y="270" width="380" height="80" rx="6" fill="#F8FAFC" stroke="#E2E8F0" stroke-width="1" />
    <circle cx="65" cy="310" r="22" fill="#0F172A" />
    <text x="65" y="316" font-size="16" font-weight="bold" fill="#FDE68A" text-anchor="middle">PF</text>
    <text x="110" y="295" font-size="13" fill="#64748B">总数</text><text x="110" y="325" font-size="24" font-weight="bold" fill="#0F172A">4</text>
    <text x="180" y="295" font-size="13" fill="#64748B">运行</text><text x="180" y="325" font-size="24" font-weight="bold" fill="#10B981">4</text>
    <text x="250" y="295" font-size="13" fill="#64748B">故障</text><text x="250" y="325" font-size="24" font-weight="bold" fill="#94A3B8">0</text>
    <rect x="310" y="295" width="70" height="30" rx="15" fill="#D1FAE5" />
    <text x="345" y="315" font-size="13" font-weight="bold" fill="#065F46" text-anchor="middle">正常</text>
  </g>

</svg>