<svg width="1024" height="1024" viewBox="0 0 1024 1024" fill="none" xmlns="http://www.w3.org/2000/svg">
  <!-- 引用公共样式 -->
  <defs>
    <linearGradient id="bg_gradient" x1="100" y1="100" x2="924" y2="924" gradientUnits="userSpaceOnUse">
      <stop stop-color="#FFFFFF" />
      <stop offset="0.4" stop-color="#FFF0F3" />
      <stop offset="1" stop-color="#FFD1DC" />
    </linearGradient>
    <linearGradient id="gem_gradient" x1="256" y1="200" x2="768" y2="900" gradientUnits="userSpaceOnUse">
      <stop stop-color="#00C6FF" />
      <stop offset="0.5" stop-color="#0072FF" />
      <stop offset="1" stop-color="#0038A8" />
    </linearGradient>
    <linearGradient id="glass_shine" x1="512" y1="380" x2="512" y2="650" gradientUnits="userSpaceOnUse">
      <stop stop-color="white" stop-opacity="0.95"/>
      <stop offset="1" stop-color="white" stop-opacity="0"/>
    </linearGradient>
    <filter id="gem_shadow" x="-50%" y="-50%" width="200%" height="200%">
      <feGaussianBlur in="SourceAlpha" stdDeviation="25" />
      <feOffset dx="0" dy="25" result="offsetblur"/>
      <feFlood flood-color="#0055FF" flood-opacity="0.35"/>
      <feComposite in2="offsetblur" operator="in"/>
      <feMerge><feMergeNode/><feMergeNode in="SourceGraphic"/></feMerge>
    </filter>
  </defs>

  <!-- 背景 -->
  <rect x="0" y="0" width="1024" height="1024" rx="240" fill="url(#bg_gradient)"/>
  <rect x="10" y="10" width="1004" height="1004" rx="230" stroke="white" stroke-opacity="0.6" stroke-width="4"/>

  <!-- 图标主体：摄像头 -->
  <g filter="url(#gem_shadow)">
    <!-- 机身 -->
    <path d="M220 400 H 804 C 830 400 850 420 850 446 V 700 C 850 755 805 800 750 800 H 270 C 215 800 170 755 170 700 V 450 C 170 422 192 400 220 400 Z" fill="url(#gem_gradient)"/>
    <!-- 顶部支架装饰 -->
    <rect x="362" y="280" width="300" height="100" rx="30" fill="url(#gem_gradient)"/>
    
    <!-- 玻璃高光 -->
    <rect x="190" y="420" width="640" height="180" rx="60" fill="url(#glass_shine)"/>
    
    <!-- 镜头部分 (纯白反差) -->
    <circle cx="512" cy="600" r="110" fill="white" fill-opacity="0.2"/>
    <circle cx="512" cy="600" r="80" fill="white"/>
    <circle cx="512" cy="600" r="40" fill="#0038A8"/> <!-- 瞳孔 -->
  </g>
</svg>