<svg width="120" height="120" viewBox="0 0 120 120" xmlns="http://www.w3.org/2000/svg">
  <defs>
    <linearGradient id="grad-light" x1="0%" y1="0%" x2="0%" y2="100%">
      <stop offset="0%" stop-color="#FBBF24"/>
      <stop offset="100%" stop-color="#D97706"/>
    </linearGradient>
    <filter id="shadow" x="-50%" y="-50%" width="200%" height="200%">
      <feDropShadow dx="0" dy="4" stdDeviation="4" flood-opacity="0.2"/>
    </filter>
  </defs>

  <g transform="translate(60, 50)">
    <circle cx="0" cy="0" r="30" fill="#F59E0B" opacity="0.15"/>
    <circle cx="0" cy="0" r="24" fill="#F59E0B" opacity="0.25"/>
    
    <circle cx="0" cy="0" r="18" fill="url(#grad-light)" filter="url(#shadow)"/>
    <ellipse cx="0" cy="-8" rx="10" ry="5" fill="#FFFFFF" opacity="0.3"/>
    
    <!-- 灯泡形状 -->
    <path d="M-5 -2 C-5 -5 -2 -8 0 -8 C2 -8 5 -5 5 -2 C5 1 4 2 4 4 H-4 C-4 2 -5 1 -5 -2 Z" fill="#FFFFFF"/>
    <rect x="-3" y="5" width="6" height="2" fill="#FFFFFF" opacity="0.8"/>
    <path d="M0 -11 V-9 M-7 -2 H-5 M5 -2 H7" stroke="#FFFFFF" stroke-width="1.5" stroke-linecap="round"/>

    <g transform="translate(0, 35)">
      <rect x="-35" y="-10" width="70" height="20" rx="10" fill="#FFFFFF" stroke="#FDE68A" stroke-width="1"/>
      <text x="0" y="4" text-anchor="middle" font-family="sans-serif" font-size="11" font-weight="700" fill="#B45309">路灯-09</text>
    </g>
  </g>
</svg>