<svg width="120" height="120" viewBox="0 0 120 120" xmlns="http://www.w3.org/2000/svg">
  <defs>
    <linearGradient id="grad-music" x1="0%" y1="0%" x2="0%" y2="100%">
      <stop offset="0%" stop-color="#C084FC"/>
      <stop offset="100%" stop-color="#9333EA"/>
    </linearGradient>
    <filter id="shadow" x="-50%" y="-50%" width="200%" height="200%">
      <feDropShadow dx="0" dy="4" stdDeviation="4" flood-opacity="0.2"/>
    </filter>
  </defs>

  <g transform="translate(60, 50)">
    <circle cx="0" cy="0" r="30" fill="#A855F7" opacity="0.15"/>
    <circle cx="0" cy="0" r="24" fill="#A855F7" opacity="0.25"/>
    
    <circle cx="0" cy="0" r="18" fill="url(#grad-music)" filter="url(#shadow)"/>
    <ellipse cx="0" cy="-8" rx="10" ry="5" fill="#FFFFFF" opacity="0.3"/>
    
    <!-- 喇叭形状 -->
    <path d="M-5 3 L-9 7 V-7 L-5 -3 H0 V3 H-5 Z" fill="#FFFFFF"/>
    <path d="M4 -3 Q7 -3 7 0 Q7 3 4 3" stroke="#FFFFFF" stroke-width="1.5" fill="none"/>
    <path d="M7 -6 Q11 -6 11 0 Q11 6 7 6" stroke="#FFFFFF" stroke-width="1.5" fill="none" opacity="0.6"/>

    <g transform="translate(0, 35)">
      <rect x="-35" y="-10" width="70" height="20" rx="10" fill="#FFFFFF" stroke="#E9D5FF" stroke-width="1"/>
      <text x="0" y="4" text-anchor="middle" font-family="sans-serif" font-size="11" font-weight="700" fill="#7E22CE">广播-03</text>
    </g>
  </g>
</svg>