<svg width="120" height="120" viewBox="0 0 120 120" xmlns="http://www.w3.org/2000/svg">
  <defs>
    <linearGradient id="grad-access" x1="0%" y1="0%" x2="0%" y2="100%">
      <stop offset="0%" stop-color="#2DD4BF"/>
      <stop offset="100%" stop-color="#0D9488"/>
    </linearGradient>
    <filter id="shadow" x="-50%" y="-50%" width="200%" height="200%">
      <feDropShadow dx="0" dy="4" stdDeviation="4" flood-opacity="0.2"/>
    </filter>
  </defs>

  <g transform="translate(60, 50)">
    <circle cx="0" cy="0" r="30" fill="#14B8A6" opacity="0.15"/>
    <circle cx="0" cy="0" r="24" fill="#14B8A6" opacity="0.25"/>
    
    <circle cx="0" cy="0" r="18" fill="url(#grad-access)" filter="url(#shadow)"/>
    <ellipse cx="0" cy="-8" rx="10" ry="5" fill="#FFFFFF" opacity="0.3"/>
    
    <!-- 锁形状 -->
    <path d="M0 9 L-7 5 V-2 C-7 -6 0 -8 0 -8 C0 -8 7 -6 7 -2 V5 L0 9 Z" fill="none" stroke="#FFFFFF" stroke-width="1.5"/>
    <rect x="-3" y="-3" width="6" height="5" rx="1" fill="#FFFFFF"/>
    <path d="M-2 -3 V-4 A 2 2 0 0 1 2 -4 V-3" stroke="#FFFFFF" stroke-width="1.5" fill="none"/>

    <g transform="translate(0, 35)">
      <rect x="-35" y="-10" width="70" height="20" rx="10" fill="#FFFFFF" stroke="#99F6E4" stroke-width="1"/>
      <text x="0" y="4" text-anchor="middle" font-family="sans-serif" font-size="11" font-weight="700" fill="#0F766E">门禁-E</text>
    </g>
  </g>
</svg>